<?xml version="1.0" encoding="UTF-8"?>
<svg version="1.1" xmlns="http://www.w3.org/2000/svg" width="450" height="387">
<path d="M0 0 C0.99 0.33 1.98 0.66 3 1 C2.7215625 1.86625 2.7215625 1.86625 2.4375 2.75 C1.7761831 5.30393357 1.7761831 5.30393357 3 9 C7.455 8.505 7.455 8.505 12 8 C11.7609994 15.05051778 11.7609994 15.05051778 9.73828125 17.57421875 C7.60529814 19.36334564 5.48414167 20.80472353 2.8984375 21.84765625 C0.32653254 23.40879198 0.15424 24.68201659 -0.5625 27.5625 C-0.92021484 28.89861328 -0.92021484 28.89861328 -1.28515625 30.26171875 C-1.52105469 31.16535156 -1.75695312 32.06898437 -2 33 C-4.81741696 42.51431381 -4.81741696 42.51431381 -8 46 C-12.40114397 45.49701212 -14.71195019 43.91227269 -18 41 C-19.32 41.66 -20.64 42.32 -22 43 C-22 42.34 -22 41.68 -22 41 C-23.98 41 -25.96 41 -28 41 C-27.690625 41.804375 -27.38125 42.60875 -27.0625 43.4375 C-26.18271761 46.38735859 -25.86037925 48.49495186 -25.6875 51.5 C-25.23697161 56.46415545 -23.39289352 58.44159948 -20 62 C-18.6875 64.375 -18.6875 64.375 -18 66 C-15.525 65.01 -15.525 65.01 -13 64 C-13 62.68 -13 61.36 -13 60 C-11.68 60.33 -10.36 60.66 -9 61 C-9.08566397 63.912575 -9.57910955 65.56798024 -11.625 67.66796875 C-13.38391375 69.16091772 -15.16313019 70.60436262 -17 72 C-16.01 72.66 -15.02 73.32 -14 74 C-14 75.32 -14 76.64 -14 78 C-12.78183594 78.00257812 -11.56367187 78.00515625 -10.30859375 78.0078125 C4.35624057 78.27541342 4.35624057 78.27541342 8.3125 82 C8.78945312 82.54527344 9.26640625 83.09054688 9.7578125 83.65234375 C11.54358232 85.58973553 13.47923837 85.52309915 16 86 C17.36176922 87.64351457 18.68962066 89.31522656 20 91 C22.04728277 92.63782621 24.14856376 94.16012183 26.29296875 95.66796875 C28.60129524 97.46920292 28.94202937 98.61352916 29.375 101.5 C28.90257657 105.90928536 27.12759637 108.84678077 24.8984375 112.6328125 C23.70757021 114.96407821 23.70757021 114.96407821 24.8515625 117.1171875 C25.23054688 117.73851562 25.60953125 118.35984375 26 119 C26 119.99 26 120.98 26 122 C26.78375 122.28875 27.5675 122.5775 28.375 122.875 C31 124 31 124 33 126 C37.06737077 123.04191217 40.15190105 119.64138562 43.3515625 115.8046875 C45.87747058 113.03935686 47.58444569 112.05488453 51.3125 111.5625 C56.17487109 112.13939149 57.58138701 113.58138701 61 117 C61.33 117.66 61.66 118.32 62 119 C62.33 117.35 62.66 115.7 63 114 C62.21625 113.443125 61.4325 112.88625 60.625 112.3125 C57.15028895 109.25144503 56.1799475 106.71534372 55.69921875 102.1328125 C55.67513571 95.95149882 56.02311136 91.45762918 59 86 C59.66 86 60.32 86 61 86 C61 85.34 61 84.68 61 84 C65.05431692 82.84162374 67.21812119 83.16308743 71 85 C71 85.66 71 86.32 71 87 C71.66 87 72.32 87 73 87 C74.70493625 90.01321387 75.36423175 92.49813779 75.6875 95.9375 C75.77386719 96.77152344 75.86023438 97.60554688 75.94921875 98.46484375 C76 101 76 101 75 106 C82.92 106 90.84 106 99 106 C99 104.35 99 102.7 99 101 C103.60019044 98.82801569 108.20824817 96.6740936 112.82446289 94.53637695 C114.39315296 93.80689312 115.95959413 93.07255259 117.52368164 92.33325195 C119.77434704 91.27045759 122.03256321 90.22548067 124.29296875 89.18359375 C125.33701118 88.68369179 125.33701118 88.68369179 126.40214539 88.1736908 C129.39987158 86.80996575 131.57078224 85.96919386 134.88793945 86.20727539 C137.26247487 87.0985153 138.2293249 88.2293249 140 90 C140.825 90.103125 141.65 90.20625 142.5 90.3125 C145 91 145 91 146.8125 93.4375 C148 97 148 97 148 107 C166.81 107 185.62 107 205 107 C205 105.35 205 103.7 205 102 C203.68 101.67 202.36 101.34 201 101 C200.4375 99.0625 200.4375 99.0625 200 97 C200.33 96.67 200.66 96.34 201 96 C202.6396875 96.0928125 202.6396875 96.0928125 204.3125 96.1875 C208.02094645 96.41194676 208.02094645 96.41194676 209.9375 94.0625 C212.56553199 91.43446801 214.41145174 91.17596084 218.0390625 90.90625 C221.13801202 91.05440695 222.69415934 91.95768399 225 94 C227.18323877 97.58674941 228.39015722 100.85306912 229 105 C230.78141747 105.86358623 230.78141747 105.86358623 233 106 C235.10413616 104.14589423 235.10413616 104.14589423 237 102 C240.60572704 100.79809099 243.2102435 100.67329685 247 101 C251.35112274 103.57111798 252.93208623 106.48818814 255 111 C255.804375 111.8971875 255.804375 111.8971875 256.625 112.8125 C260.83219524 119.50576515 258.57029411 128.08724677 257.04980469 135.29956055 C256.83043747 136.3933905 256.61107025 137.48722046 256.38505554 138.61419678 C255.66065736 142.20788928 254.91677199 145.79722397 254.171875 149.38671875 C253.66102492 151.89277792 253.15113122 154.39903222 252.64215088 156.9054718 C251.57447797 162.14816442 250.49785868 167.38890067 249.41357422 172.62817383 C248.16258834 178.67346636 246.92726292 184.72179371 245.70055652 190.77205628 C244.51639048 196.61124235 243.32239663 202.4483827 242.12375641 208.28461647 C241.61599034 210.76046954 241.11047534 213.23678539 240.60726166 215.71356773 C239.90254069 219.173724 239.18672754 222.63140007 238.46777344 226.08862305 C238.15899513 227.62000664 238.15899513 227.62000664 237.84397888 229.18232727 C236.25748648 236.72088462 234.67434676 242.49481594 228 247 C224.56728274 248.14423909 221.9235595 248.13167076 218.30168152 248.14044189 C217.61731484 248.14341302 216.93294817 248.14638414 216.22784311 248.1494453 C213.92947097 248.15813248 211.63115093 248.15964056 209.33276367 248.16113281 C207.68690377 248.16576097 206.04104495 248.17078563 204.39518738 248.17617798 C199.91989869 248.18930418 195.444625 248.19574737 190.96932006 248.20018864 C188.1736854 248.20311901 185.37805485 248.20722375 182.58242226 248.21169281 C173.83654906 248.22536832 165.09068523 248.23503471 156.34480208 248.2388947 C146.24707269 248.24337573 136.14947865 248.26092548 126.05179042 248.2898953 C118.24787626 248.31150763 110.4440002 248.32159874 102.64005643 248.32293582 C97.97851792 248.32398417 93.31710662 248.32989835 88.65559959 248.34775543 C84.2700682 248.36422836 79.88475975 248.36639543 75.49920845 248.35761642 C73.89077533 248.35684563 72.28233026 248.36119436 70.67392731 248.37107468 C68.47544273 248.38378637 66.27774875 248.37792227 64.07926941 248.36749268 C62.23507557 248.36969252 62.23507557 248.36969252 60.3536253 248.3719368 C55.56189368 247.84050554 52.24961544 246.26651374 48.86962891 242.84082031 C46.49360934 239.23056129 44.79193856 235.50924188 43.0859375 231.546875 C42.535392 230.29338509 42.535392 230.29338509 41.97372437 229.01457214 C40.76706876 226.26275252 39.57107736 223.50643187 38.375 220.75 C37.52839373 218.8142175 36.68105182 216.87875659 35.83300781 214.94360352 C34.08042122 210.94146417 32.33195319 206.93756478 30.58691406 202.93212891 C27.03160409 194.77382896 23.44823707 186.62788925 19.8671875 178.48086548 C18.75390519 175.94639047 17.64228241 173.41119444 16.53125 170.87573242 C12.88560565 162.55733158 9.22650733 154.24527774 5.5390625 145.9453125 C4.82970744 144.34645558 4.12039656 142.74757906 3.41113281 141.14868164 C2.08372314 138.15649672 0.75166123 135.16644287 -0.58300781 132.17749023 C-1.17271256 130.84887834 -1.76224155 129.52018842 -2.3515625 128.19140625 C-3.12234131 126.46192749 -3.12234131 126.46192749 -3.90869141 124.69750977 C-5 122 -5 122 -5 120 C-5.66 120 -6.32 120 -7 120 C-8.33333333 116 -9.66666667 112 -11 108 C-11.87870506 107.99120064 -11.87870506 107.99120064 -12.77516174 107.98222351 C-18.89151769 107.91811604 -25.0073559 107.83365199 -31.12329102 107.73754883 C-33.40349486 107.70436633 -35.68377953 107.67631376 -37.96411133 107.65356445 C-41.24855882 107.61989618 -44.53227014 107.56757274 -47.81640625 107.51171875 C-48.83021866 107.50532883 -49.84403107 107.4989389 -50.88856506 107.49235535 C-57.81325313 107.34964527 -63.03618423 106.65183516 -68.375 101.875 C-70.60187278 97.93514816 -71.18552607 94.50673755 -71 90 C-69.82694491 85.79080231 -68.78902112 83.67196603 -65.46240234 80.83886719 C-61.02360313 78.48143977 -57.61058451 78.39782595 -52.6640625 78.390625 C-51.78471039 78.37408875 -50.90535828 78.35755249 -49.99935913 78.34051514 C-47.20783408 78.29217086 -44.41685324 78.27069465 -41.625 78.25 C-39.72523324 78.22182892 -37.82549168 78.1918999 -35.92578125 78.16015625 C-31.283899 78.08641566 -26.64231645 78.03675827 -22 78 C-22 76.68 -22 75.36 -22 74 C-23.0725 73.938125 -24.145 73.87625 -25.25 73.8125 C-29 73 -29 73 -31.4375 70.9375 C-33.57612352 66.91688779 -33.44470616 64.52117928 -33 60 C-32.34 59.34 -31.68 58.68 -31 58 C-31.928125 57.608125 -32.85625 57.21625 -33.8125 56.8125 C-37.31968762 54.81821685 -38.45835083 53.68282857 -40 50 C-40.58852908 46.92657037 -40.61197649 45.06971499 -39.0390625 42.3203125 C-36.660552 39.44685183 -34.84544155 38.17743835 -31.15234375 37.40234375 C-28.42381367 37.15237519 -25.73922012 37.00974811 -23 37 C-25.31 35.02 -27.62 33.04 -30 31 C-28.68683724 25.74734896 -26.34092511 24.02620048 -22 21 C-19.41573252 19.59215279 -16.8105749 18.30654283 -14.13671875 17.078125 C-11.50228586 15.74886819 -10.25851752 14.69282696 -9.21875 11.90625 C-8.9815625 11.1121875 -8.744375 10.318125 -8.5 9.5 C-7.61483047 6.53660634 -7.22193687 5.22193687 -5 3 C-3.68 3 -2.36 3 -1 3 C-0.67 2.01 -0.34 1.02 0 0 Z M-37 45 C-37.38880902 49.14839745 -37.38880902 49.14839745 -35.8125 52.875 C-33.43963721 54.34781139 -31.74086056 54.22223194 -29 54 C-28.19530151 52.29887008 -28.19530151 52.29887008 -28 50 C-29.35814007 46.78287055 -29.35814007 46.78287055 -31 44 C-34.28930404 43.63314303 -34.28930404 43.63314303 -37 45 Z M-27 59 C-29.2477975 61.05233685 -30.0022242 62.00667261 -31 65 C-29.91666667 67.75 -29.91666667 67.75 -28 70 C-26.68 70 -25.36 70 -24 70 C-22.22590192 68.07977297 -22.22590192 68.07977297 -21 66 C-23.37629089 61.85329961 -23.37629089 61.85329961 -27 59 Z M-20 75 C-20 75.99 -20 76.98 -20 78 C-18.35 78 -16.7 78 -15 78 C-15.33 77.01 -15.66 76.02 -16 75 C-17.32 75 -18.64 75 -20 75 Z M63 87 C63 87.66 63 88.32 63 89 C62.34 89 61.68 89 61 89 C58.55331822 95.11670446 57.87639887 100.24206995 60.375 106.375 C61.88428742 109.03698031 61.88428742 109.03698031 64 111 C66.47636473 110.7603518 67.75614699 110.19869504 69.6875 108.625 C73.02167564 104.49697302 72.32833109 99.01305517 72 94 C71.04710125 90.73291857 70.39383994 89.39383994 68 87 C65.41645782 86.83312552 65.41645782 86.83312552 63 87 Z M48 115.5 C44.88538363 118.09551364 42.55959709 120.86449356 40 124 C38.9348788 124.89708023 37.85133853 125.77277376 36.75 126.625 C33.62680313 128.8616373 33.62680313 128.8616373 33 133 C42.9 133 52.8 133 63 133 C64.62423368 126.52011652 64.62423368 126.52011652 62.5234375 123.19921875 C61.81445312 122.37035156 61.10546875 121.54148437 60.375 120.6875 C59.68148437 119.84574219 58.98796875 119.00398438 58.2734375 118.13671875 C54.72947482 114.80588097 52.516479 113.2417605 48 115.5 Z M66 131 C64.26150372 132.73849628 64.82783704 135.0786637 64.8125 137.4375 C64.79832031 138.42621094 64.78414062 139.41492188 64.76953125 140.43359375 C64.73849247 143.16584415 64.73849247 143.16584415 67 145 C67.61488281 144.16855469 67.61488281 144.16855469 68.2421875 143.3203125 C68.78101563 142.59585938 69.31984375 141.87140625 69.875 141.125 C70.40867188 140.40570313 70.94234375 139.68640625 71.4921875 138.9453125 C73 137 73 137 75 135 C70.545 133.02 70.545 133.02 66 131 Z M81 136 C80.86783392 137.91493967 80.76935514 139.83225092 80.6875 141.75 C80.3871373 145.57734895 80.1263791 147.76128393 78.3125 151.1875 C75.42539423 153.45036669 73.6591623 153.92532322 70 154 C67.125 153.0625 67.125 153.0625 65 152 C63.68658023 154.20694703 63.68658023 154.20694703 64.25 157.875 C64.26785438 161.14830385 64.16649002 161.78517417 62.0625 164.5 C56.80388209 167.07564959 51.54649025 166.54698027 46 165 C46.6954344 168.00384054 46.6954344 168.00384054 48 171 C49.9519572 171.9049261 49.9519572 171.9049261 52 172 C55.01327566 173.50663783 55.61056618 176.03166411 57 179 C59.33782987 178.68828935 61.66794799 178.3514051 64 178 C65.40765625 177.79890625 65.40765625 177.79890625 66.84375 177.59375 C67.8234375 177.4390625 68.803125 177.284375 69.8125 177.125 C70.74707031 176.98320312 71.68164062 176.84140625 72.64453125 176.6953125 C75.34928652 176.17044906 75.34928652 176.17044906 77 173 C74.03 170.69 71.06 168.38 68 166 C68.33 165.01 68.66 164.02 69 163 C72.06392386 164.11415413 74.78626004 165.43771623 77.5625 167.125 C80.93266142 169.31923475 80.93266142 169.31923475 85 169 C84.79672352 170.73240105 84.56109496 172.4610194 84.3125 174.1875 C84.12107422 175.63189453 84.12107422 175.63189453 83.92578125 177.10546875 C82.02542011 183.0471042 76.17130806 186.61671468 71.375 190.3125 C70.80265625 190.76689453 70.2303125 191.22128906 69.640625 191.68945312 C65.35931626 195 65.35931626 195 62 195 C65.3618226 190.74828319 68.74828319 187.3618226 73 184 C71.96431405 182.29264699 71.96431405 182.29264699 70 181 C64.24703063 181.11280332 59.90906354 183.25857491 55 186 C57.93023524 194.0691905 61.23034835 201.92295514 64.75 209.75 C65.15081787 210.64364258 65.55163574 211.53728516 65.96459961 212.45800781 C67.55863602 216.50308327 67.55863602 216.50308327 70 220 C71.78071246 220.08726223 73.5648314 220.10699041 75.34765625 220.09765625 C76.42724609 220.09443359 77.50683594 220.09121094 78.61914062 220.08789062 C79.75544922 220.07951172 80.89175781 220.07113281 82.0625 220.0625 C83.20267578 220.05798828 84.34285156 220.05347656 85.51757812 220.04882812 C88.34510351 220.03699747 91.1725264 220.0205141 94 220 C93.17113281 219.28199219 92.34226563 218.56398438 91.48828125 217.82421875 C89 215 89 215 88.79296875 212.45703125 C88.92316406 211.58433594 89.05335938 210.71164062 89.1875 209.8125 C89.4943286 204.63825407 88.33397216 202.56416305 84.9375 198.6875 C84.18339844 197.92824219 83.42929688 197.16898438 82.65234375 196.38671875 C81 194 81 194 80.953125 190.921875 C82.2531855 187.29334793 83.4902713 186.43520579 86.8125 184.5625 C87.68519531 184.04816406 88.55789062 183.53382813 89.45703125 183.00390625 C92 182 92 182 94.125 182.01171875 C96.92209981 183.48602344 97.744057 185.47443352 99.1875 188.25 C99.69667969 189.20390625 100.20585937 190.1578125 100.73046875 191.140625 C102 194 102 194 102.4765625 196.66015625 C103.11113711 199.49679945 104.0084448 200.31630249 106.1875 202.1875 C111.5280113 207.19835011 114.80668485 213.47844089 118 220 C120.12438339 220.08078641 122.2496323 220.13909141 124.375 220.1875 C125.55835938 220.22230469 126.74171875 220.25710938 127.9609375 220.29296875 C128.96382813 220.19628906 129.96671875 220.09960938 131 220 C133.4294516 216.3558226 133.16179575 214.28758728 133 210 C137.455 209.505 137.455 209.505 142 209 C142 208.34 142 207.68 142 207 C143.32 207 144.64 207 146 207 C146 207.99 146 208.98 146 210 C147.65 210.66 149.3 211.32 151 212 C150.979375 213.134375 150.95875 214.26875 150.9375 215.4375 C150.58422523 218.81575674 150.58422523 218.81575674 152 220 C153.81055025 220.09376053 155.62477201 220.1174411 157.43774414 220.11352539 C158.59887222 220.11344986 159.76000031 220.11337433 160.95631409 220.11329651 C162.219832 220.10813522 163.48334991 220.10297394 164.78515625 220.09765625 C166.07111191 220.0962413 167.35706757 220.09482635 168.68199158 220.09336853 C172.10643443 220.08954418 175.53083509 220.07971462 178.95526123 220.06866455 C182.44738189 220.05844864 185.93950934 220.05387053 189.43164062 220.04882812 C196.28777778 220.03809227 203.14388687 220.02101684 210 220 C211.00228624 215.51713009 211.99903835 211.03307874 212.99072266 206.54785156 C213.32872816 205.02277592 213.66823313 203.4980318 214.00927734 201.97363281 C214.49973536 199.78015587 214.98475649 197.58553618 215.46875 195.390625 C215.62186646 194.7113092 215.77498291 194.03199341 215.93273926 193.33209229 C216.64025097 190.09927826 217 187.33549386 217 184 C211.39 184 205.78 184 200 184 C202.67642489 186.18490007 202.67642489 186.18490007 205 186 C208.5547872 192.87258859 208.66723004 199.34441321 208 207 C206.85061563 209.96750146 205.25064462 211.74935538 203 214 C199.44103015 214.15817644 196.42255584 213.9354491 193 213 C189.21627409 198.51605996 189.21627409 198.51605996 192 191 C192.34768572 189.67033706 192.68456441 188.33768056 193 187 C193.66 187 194.32 187 195 187 C195 186.34 195 185.68 195 185 C195.99 184.67 196.98 184.34 198 184 C177.38841845 182.80451396 177.38841845 182.80451396 159 191 C159.30852185 192.958964 159.6219418 194.91715713 159.9375 196.875 C160.19853516 198.51082031 160.19853516 198.51082031 160.46484375 200.1796875 C160.85551159 202.93821546 160.85551159 202.93821546 162 205 C165.32632488 204.2809812 165.32632488 204.2809812 166.625 200.8125 C167.89741899 197.58815031 168.57941506 194.44879647 169 191 C174.94 190.505 174.94 190.505 181 190 C181.99 194.95 181.99 194.95 183 200 C177.24100459 201.96329389 177.24100459 201.96329389 175.05078125 202.296875 C172.15983605 203.28805621 170.90177037 205.00003527 168.9375 207.3125 C168.26589844 208.09238281 167.59429687 208.87226563 166.90234375 209.67578125 C165.67611812 211.17394192 164.49653046 212.71213643 163.37890625 214.29296875 C162.92386719 214.85628906 162.46882813 215.41960937 162 216 C161.34 216 160.68 216 160 216 C157.875 209.375 157.875 209.375 159 206 C158.91343435 203.60129387 158.76001509 201.20462719 158.5625 198.8125 C158.40974609 196.90404297 158.40974609 196.90404297 158.25390625 194.95703125 C158.17011719 193.98121094 158.08632813 193.00539062 158 192 C155.35247996 194.57784846 153.05567935 196.91648098 151 200 C148.6796875 200.328125 148.6796875 200.328125 145.875 200.25 C144.40546875 200.20939453 144.40546875 200.20939453 142.90625 200.16796875 C132.57061341 199.57061341 132.57061341 199.57061341 131 198 C130.66326613 193.28572582 131.59336061 189.48366307 133 185 C133 184.67 133 184.34 133 184 C128.38 184 123.76 184 119 184 C120.40887223 187.52218057 121.84329673 190.76870467 123.5625 194.125 C125.92714912 198.74203003 127.13558216 202.50349761 127.5625 207.6875 C127.64628906 208.68136719 127.73007813 209.67523438 127.81640625 210.69921875 C127.87699219 211.45847656 127.93757813 212.21773438 128 213 C126.88625 212.649375 125.7725 212.29875 124.625 211.9375 C121.19735524 210.62760669 121.19735524 210.62760669 119 212 C119.05929688 210.97519531 119.11859375 209.95039063 119.1796875 208.89453125 C118.76828172 199.9777581 112.92947288 192.56168234 106.75 186.5 C105.91984375 185.7471875 105.0896875 184.994375 104.234375 184.21875 C101.93656262 181.93700624 100.38649951 179.92494417 99 177 C99.33 176.01 99.66 175.02 100 174 C100.66 173.70609375 101.32 173.4121875 102 173.109375 C104.21046491 172.17454457 104.21046491 172.17454457 104.75 169.828125 C105.40547807 163.84647367 105.40547807 163.84647367 103.0625 158.5 C102.381875 157.675 101.70125 156.85 101 156 C101 155.34 101 154.68 101 154 C102.390625 152.8515625 102.390625 152.8515625 104.25 151.625 C107.3189663 149.59213771 109.28269144 147.71730856 112 145 C111.01 149.62 110.02 154.24 109 159 C110.65 158.34 112.3 157.68 114 157 C116.32597511 156.6186926 118.65912158 156.27539746 121 156 C121.66 154.02 122.32 152.04 123 150 C128.875 152.75 128.875 152.75 130 155 C132.7062437 155.90208123 134.23850986 156.12227599 137.01245117 156.11352539 C137.81305466 156.11344986 138.61365814 156.11337433 139.43852234 156.11329651 C140.29798965 156.10813522 141.15745697 156.10297394 142.04296875 156.09765625 C143.36836418 156.09553383 143.36836418 156.09553383 144.72053528 156.09336853 C147.54289128 156.08777069 150.36516797 156.07521861 153.1875 156.0625 C155.10091031 156.05748472 157.01432187 156.05292186 158.92773438 156.04882812 C163.61852014 156.03780197 168.30924663 156.02053883 173 156 C172.505 154.515 172.505 154.515 172 153 C171.64328894 147.47097862 171.72906329 144.63382701 175 140 C175 139.34 175 138.68 175 138 C176.65 137.67 178.3 137.34 180 137 C179.67 136.34 179.34 135.68 179 135 C175.7 135 172.4 135 169 135 C168.63648438 135.92683594 168.27296875 136.85367188 167.8984375 137.80859375 C167.14433594 139.60490234 167.14433594 139.60490234 166.375 141.4375 C165.88773437 142.63246094 165.40046875 143.82742187 164.8984375 145.05859375 C163 148 163 148 159.953125 148.97265625 C156.75345622 149.00228281 154.91311753 148.2265758 152 147 C148.63063138 147.10868931 147.61166875 148.33978985 145 150.625 C144.01 151.40875 143.02 152.1925 142 153 C140.68 152.67 139.36 152.34 138 152 C137.67 148.7 137.34 145.4 137 142 C138.32 141.34 139.64 140.68 141 140 C142.75322937 137.46811352 142.75322937 137.46811352 144 135 C133.9811725 134.46006319 126.08799784 134.52756068 116.83203125 139.00390625 C113.38389655 140.21669845 111.46298523 140.13147042 108 139 C106.82739258 136.94360352 106.82739258 136.94360352 106 135 C102.02084841 134.97113016 98.04172347 134.95324594 94.0625 134.9375 C92.92619141 134.92912109 91.78988281 134.92074219 90.61914062 134.91210938 C89.53955078 134.90888672 88.45996094 134.90566406 87.34765625 134.90234375 C86.34742432 134.89710693 85.34719238 134.89187012 84.31665039 134.88647461 C82.03792772 134.73818905 82.03792772 134.73818905 81 136 Z M191 135 C191 136.32 191 137.64 191 139 C188.03 139 185.06 139 182 139 C182 142.91670603 183.55514225 144.61148032 185.7109375 147.76953125 C187 150 187 150 189 156 C194.61 156 200.22 156 206 156 C206 155.34 206 154.68 206 154 C207.32 154 208.64 154 210 154 C210 154.66 210 155.32 210 156 C214.29 156 218.58 156 223 156 C223.33 154.02 223.66 152.04 224 150 C223.01257813 149.93941406 222.02515625 149.87882813 221.0078125 149.81640625 C219.72648437 149.73261719 218.44515625 149.64882812 217.125 149.5625 C215.84882813 149.48128906 214.57265625 149.40007812 213.2578125 149.31640625 C210 149 210 149 208 148 C208 143.71 208 139.42 208 135 C202.39 135 196.78 135 191 135 Z M211 135 C210.67 135.99 210.34 136.98 210 138 C215.61 138.33 221.22 138.66 227 139 C227 137.68 227 136.36 227 135 C221.72 135 216.44 135 211 135 Z M74 139 C70.17798717 142.82201283 68.25957005 145.41924388 68 151 C68.33 151.33 68.66 151.66 69 152 C73.88464346 151.7739113 73.88464346 151.7739113 77.9375 149.3125 C79.29942264 146.34831544 79.35071145 144.22654537 79 141 C78.34 140.34 77.68 139.68 77 139 C76.01 139 75.02 139 74 139 Z M47 143 C51 144 51 144 51 144 Z M179 144 C175.36024664 145.06378748 175.36024664 145.06378748 172.875 147.75 C173.08978826 151.61618877 175.30086734 153.41822094 178 156 C180.62985808 156.66840854 180.62985808 156.66840854 183 156 C183.66 155.34 184.32 154.68 185 154 C184.89834392 150.23872509 184.00920966 149.01010816 181.4375 146.1875 C180.633125 145.465625 179.82875 144.74375 179 144 Z M39 150 C40.32 153.3 41.64 156.6 43 160 C44.32 159.34 45.64 158.68 47 158 C48.80890808 157.15889818 50.62167453 156.32606207 52.4375 155.5 C53.36433594 155.0771875 54.29117188 154.654375 55.24609375 154.21875 C57.80976364 153.08418971 60.39014344 152.02310166 63 151 C63 150.67 63 150.34 63 150 C55.08 150 47.16 150 39 150 Z M50 159 C49.67 159.66 49.34 160.32 49 161 C50.68135896 163.03532927 51.87456913 163.95378863 54.375 164.875 C57.87485912 165.04165996 59.29723436 164.1914316 62 162 C63.45291273 159.53744315 63.45291273 159.53744315 64 157 C63.67 156.34 63.34 155.68 63 155 C57.29964499 154.5439716 54.45215753 155.39587248 50 159 Z M195.8125 189.875 C191.94300171 194.41165317 192.56431875 199.27159839 193 205 C193.88249803 208.61014831 193.88249803 208.61014831 196 211 C199.08961458 211.97474816 199.08961458 211.97474816 202 212 C205.33446655 206.26888561 207.24011026 201.67751677 206 195 C204.89034306 192.39804579 203.60437613 190.35642744 202 188 C198.02598646 187.56613908 198.02598646 187.56613908 195.8125 189.875 Z M91 200 C91.20198219 202.08614437 91.43769321 204.16904068 91.6875 206.25 C91.81511719 207.41015625 91.94273437 208.5703125 92.07421875 209.765625 C93.19149963 213.66903668 94.65714138 214.8182312 98 217 C98.66 216.67 99.32 216.34 100 216 C99.484375 215.113125 98.96875 214.22625 98.4375 213.3125 C96.90433061 209.77954445 96.71788604 208.55046944 98 205 C98.66 204.34 99.32 203.68 100 203 C100 202.01 100 201.02 100 200 C97.03 200 94.06 200 91 200 Z M101 208 C102 211 102 211 102 211 Z " fill="#EC1C24" transform="translate(111,48)"/>
<path d="M0 0 C6.75561845 4.16620581 10.36763862 9.24078633 13.13671875 16.625 C14.84178626 25.3053437 13.79838411 33.66375195 8.82421875 41.125 C13.51578401 41.15016103 18.20730801 41.16807214 22.89892578 41.17993164 C24.48714891 41.18488784 26.07536766 41.19165476 27.66357422 41.20043945 C38.42802346 41.25838614 49.08964745 40.9407612 59.82421875 40.125 C59.51685791 39.5676416 59.20949707 39.0102832 58.89282227 38.43603516 C55.01496382 31.18354503 54.75578608 23.81058815 56.26171875 15.796875 C58.54628586 8.54337444 63.865032 2.94032661 70.32421875 -0.875 C77.69454546 -4.17816472 86.05257313 -4.25826961 93.76171875 -2.0234375 C100.96609497 1.20535306 106.47730186 6.60502961 109.76171875 13.8125 C112.74293187 23.27785167 111.08938961 31.50138416 106.82421875 40.125 C107.55833984 40.16463867 108.29246094 40.20427734 109.04882812 40.24511719 C145.61604467 42.31733578 145.61604467 42.31733578 152.73828125 48.76171875 C153.42664063 49.54160156 154.115 50.32148438 154.82421875 51.125 C153.83506984 53.69463685 153.20046335 54.90359453 150.79296875 56.3203125 C133.59257797 62.79767485 115.05840894 63.44035776 96.94921875 61.125 C88.16560596 60.0037919 80.50599669 59.87961337 71.73046875 61.125 C60.51431272 62.54813121 49.26530782 62.4251957 37.97705078 62.38574219 C34.33088555 62.37501961 30.68521287 62.38569386 27.0390625 62.3984375 C14.45105452 62.40507336 2.28685293 61.8944805 -10.17578125 60.125 C-15.96659262 59.69503019 -21.49209288 60.39532529 -27.23828125 61.125 C-43.97202566 63.22198802 -69.45594471 65.03681895 -84.0546875 54.80859375 C-85.17578125 53.125 -85.17578125 53.125 -85.14453125 50.57421875 C-84.17578125 48.125 -84.17578125 48.125 -82.20703125 46.83203125 C-67.16673333 41.51686424 -52.98988481 40.96995977 -37.17578125 41.125 C-37.45583008 40.577229 -37.73587891 40.02945801 -38.02441406 39.46508789 C-38.38889648 38.74571045 -38.75337891 38.02633301 -39.12890625 37.28515625 C-39.49145508 36.57238525 -39.85400391 35.85961426 -40.22753906 35.12524414 C-43.55858194 28.09866476 -42.48345124 20.70786987 -40.1484375 13.55078125 C-37.55814337 7.09065011 -33.31493651 2.42309749 -27.17578125 -0.875 C-18.45824836 -4.3449677 -8.36445799 -4.45279834 0 0 Z " fill="#F4F4F5" transform="translate(213.17578125,312.875)"/>
<path d="M0 0 C6.75561845 4.16620581 10.36763862 9.24078633 13.13671875 16.625 C14.63502289 24.25273015 14.10084885 31.03476698 10.82421875 38.125 C5.79954946 45.50606593 0.23538171 49.32127901 -8.17578125 52.125 C-18.40671208 53.06206724 -25.49800615 51.30547923 -33.48828125 44.875 C-39.50056364 39.2938773 -41.79486515 32.98168027 -42.42578125 24.9375 C-41.85703646 16.26414197 -39.13004873 8.48753998 -32.5078125 2.65625 C-23.24673971 -4.37644104 -10.33510047 -5.50186495 0 0 Z " fill="#EC1C24" transform="translate(213.17578125,312.875)"/>
<path d="M0 0 C6.45918675 3.81532661 11.77793289 9.41837444 14.0625 16.671875 C16.02123662 27.095152 14.34021128 34.96538228 8.75 43.75 C2.7468635 49.7531365 -4.27411424 53.00648323 -12.75 53.375 C-20.96464689 53.19642072 -27.99935158 50.30573072 -34.03125 44.71484375 C-40.49521674 37.16781876 -41.10154255 28.55658168 -40.5 19 C-39.14179354 11.49871293 -34.33136141 5.87178269 -28.34765625 1.38671875 C-19.82977602 -3.64464146 -9.02390032 -4.04424801 0 0 Z " fill="#EC1C24" transform="translate(309.5,312)"/>
<path d="M0 0 C4.25943799 1.42494761 7.05651685 3.50668937 10.4375 6.4375 C11.49328986 7.34030094 12.55064675 8.24127177 13.609375 9.140625 C14.16044922 9.60919922 14.71152344 10.07777344 15.27929688 10.56054688 C18.19723482 13.00154604 21.18999105 15.34540408 24.1875 17.6875 C25.0683728 18.37634277 25.0683728 18.37634277 25.96704102 19.07910156 C27.6433593 20.38779174 29.3213933 21.69424699 31 23 C31.95261719 23.7425 32.90523437 24.485 33.88671875 25.25 C35.92285824 26.83543985 37.96038838 28.41903121 40 30 C37.00400687 34.79650482 33.58449738 38.78922074 29.6875 42.875 C28.5239272 44.11121502 27.36116012 45.34818894 26.19921875 46.5859375 C25.64540527 47.1747168 25.0915918 47.76349609 24.52099609 48.37011719 C19.81791186 53.40989091 15.38557456 58.68415205 11 64 C6.72818687 63.53523675 4.4732181 60.84109374 1.640625 57.8984375 C0.87851715 57.12640488 0.87851715 57.12640488 0.10101318 56.33877563 C-1.52325614 54.69114067 -3.13706692 53.03372766 -4.75 51.375 C-6.86591012 49.21231173 -8.98620991 47.05400277 -11.109375 44.8984375 C-11.61803101 44.38110046 -12.12668701 43.86376343 -12.65075684 43.33074951 C-16.59352453 39.34684797 -20.68720807 35.58335229 -25 32 C-24.32084333 27.68914241 -23.3222714 25.89359122 -20 23 C-21.20381448 20.50638429 -22.45428722 18.31856917 -24 16 C-24.46797583 11.78821757 -24.46565795 9.71400886 -22.125 6.125 C-19.57370744 3.57370744 -18.7146711 3.06214531 -15.125 2.75 C-11.61159544 3.03107236 -10.7046836 3.92640924 -8 6 C-5.9254644 6.1490712 -5.9254644 6.1490712 -4 5 C-1.75149517 2.52338502 -1.75149517 2.52338502 0 0 Z M-19.25 7.6875 C-21.15162176 9.86900988 -21.15162176 9.86900988 -21.5625 12.5 C-20.77346174 16.00683673 -18.90241012 17.04087317 -16 19 C-13.36 16.36 -10.72 13.72 -8 11 C-10.24958334 8.41666771 -10.24958334 8.41666771 -13 6 C-16.93541667 5.6 -16.93541667 5.6 -19.25 7.6875 Z " fill="#BBBCBF" transform="translate(142,80)"/>
<path d="M0 0 C1.98 0 3.96 0 6 0 C6.33 0.99 6.66 1.98 7 3 C6.67 3.66 6.34 4.32 6 5 C6.60328125 5.12117188 7.2065625 5.24234375 7.828125 5.3671875 C8.62734375 5.53476563 9.4265625 5.70234375 10.25 5.875 C11.43335938 6.11863281 11.43335938 6.11863281 12.640625 6.3671875 C14.96831144 6.99150075 16.89031952 7.84838542 19 9 C19.16156201 12.39280222 19.12157696 14.70565577 17.8125 17.875 C16.79836059 21.77553618 17.65429006 23.39085422 19.18359375 26.984375 C20.87555658 31.16166123 21.54225736 34.56461286 19.9375 38.8125 C16.79819279 42.35687911 13.16993504 42.89786281 8.5546875 43.30078125 C-11.28817313 43.36397507 -11.28817313 43.36397507 -18.6875 37.4375 C-21.99043977 33.95602294 -21.99043977 33.95602294 -22.01953125 31.046875 C-21.6545862 26.99805068 -21.40486806 24.56934571 -19 21.1875 C-16.35754654 16.9760898 -16.38642067 13.40457157 -16.17578125 8.51171875 C-16 6 -16 6 -15 5 C-12.47403741 4.76346477 -9.96892793 4.57826308 -7.4375 4.4375 C-6.37112305 4.37272461 -6.37112305 4.37272461 -5.28320312 4.30664062 C-3.52238088 4.20028223 -1.7612168 4.09961154 0 4 C0 2.68 0 1.36 0 0 Z " fill="#BBBCBF" transform="translate(208,99)"/>
<path d="M0 0 C4.22608465 1.38256395 6.52800816 3.2532934 9.3125 6.6875 C8.32335109 9.25713685 7.6887446 10.46609453 5.28125 11.8828125 C-12.55034631 18.59787567 -31.9183497 18.91434834 -50.6875 16.6875 C-51.1825 14.7075 -51.1825 14.7075 -51.6875 12.6875 C-53.11630493 12.69535522 -53.11630493 12.69535522 -54.57397461 12.70336914 C-58.14671876 12.72162605 -61.71945888 12.73300678 -65.29223633 12.74243164 C-66.83130591 12.74742496 -68.37037084 12.75422194 -69.90942383 12.76293945 C-77.89738376 12.80701453 -85.76042953 12.81993864 -93.6875 11.6875 C-94.615625 11.584375 -95.54375 11.48125 -96.5 11.375 C-99.35851122 10.47661076 -100.74505218 8.91771787 -102.6875 6.6875 C-97.98618126 3.07623466 -94.17629565 1.77667695 -88.3125 1.125 C-87.1819519 0.99291138 -87.1819519 0.99291138 -86.02856445 0.8581543 C-81.65625421 0.48119012 -78.67195707 0.51654603 -74.875 3 C-74.33230469 3.47050781 -73.78960937 3.94101562 -73.23046875 4.42578125 C-68.87947694 7.98368088 -61.95154218 7.18318567 -56.6875 6.6875 C-51.35506705 5.33507135 -47.33806041 3.57872713 -43.6875 -0.5625 C-35.08792335 -8.57528201 -10.1618221 -2.64177354 0 0 Z " fill="#F4F4F5" transform="translate(358.6875,357.3125)"/>
<path d="M0 0 C0.99 0.33 1.98 0.66 3 1 C2.7215625 1.86625 2.7215625 1.86625 2.4375 2.75 C1.7761831 5.30393357 1.7761831 5.30393357 3 9 C7.455 8.505 7.455 8.505 12 8 C11.7609994 15.05051778 11.7609994 15.05051778 9.73828125 17.57421875 C7.60529814 19.36334564 5.48414167 20.80472353 2.8984375 21.84765625 C0.32653254 23.40879198 0.15424 24.68201659 -0.5625 27.5625 C-0.80097656 28.45324219 -1.03945312 29.34398438 -1.28515625 30.26171875 C-1.52105469 31.16535156 -1.75695312 32.06898437 -2 33 C-4.81741696 42.51431381 -4.81741696 42.51431381 -8 46 C-12.40114397 45.49701212 -14.71195019 43.91227269 -18 41 C-19.32 41.66 -20.64 42.32 -22 43 C-22 42.34 -22 41.68 -22 41 C-23.98 41 -25.96 41 -28 41 C-27.690625 41.804375 -27.38125 42.60875 -27.0625 43.4375 C-26.18271761 46.38735859 -25.86037925 48.49495186 -25.6875 51.5 C-25.23697161 56.46415545 -23.39289352 58.44159948 -20 62 C-18.6875 64.375 -18.6875 64.375 -18 66 C-15.525 65.01 -15.525 65.01 -13 64 C-13 62.68 -13 61.36 -13 60 C-11.68 60.33 -10.36 60.66 -9 61 C-9.08566397 63.912575 -9.57910955 65.56798024 -11.625 67.66796875 C-13.38391375 69.16091772 -15.16313019 70.60436262 -17 72 C-15.515 72.99 -15.515 72.99 -14 74 C-14 75.32 -14 76.64 -14 78 C-12.35 78 -10.7 78 -9 78 C-9 78.33 -9 78.66 -9 79 C-14.94 79 -20.88 79 -27 79 C-27 78.67 -27 78.34 -27 78 C-25.35 78 -23.7 78 -22 78 C-22 76.68 -22 75.36 -22 74 C-23.0725 73.938125 -24.145 73.87625 -25.25 73.8125 C-29 73 -29 73 -31.4375 70.9375 C-33.57612352 66.91688779 -33.44470616 64.52117928 -33 60 C-32.34 59.34 -31.68 58.68 -31 58 C-31.928125 57.608125 -32.85625 57.21625 -33.8125 56.8125 C-37.31968762 54.81821685 -38.45835083 53.68282857 -40 50 C-40.58852908 46.92657037 -40.61197649 45.06971499 -39.0390625 42.3203125 C-36.660552 39.44685183 -34.84544155 38.17743835 -31.15234375 37.40234375 C-28.42381367 37.15237519 -25.73922012 37.00974811 -23 37 C-25.31 35.02 -27.62 33.04 -30 31 C-28.68683724 25.74734896 -26.34092511 24.02620048 -22 21 C-19.41573252 19.59215279 -16.8105749 18.30654283 -14.13671875 17.078125 C-11.50228586 15.74886819 -10.25851752 14.69282696 -9.21875 11.90625 C-8.9815625 11.1121875 -8.744375 10.318125 -8.5 9.5 C-7.61483047 6.53660634 -7.22193687 5.22193687 -5 3 C-3.68 3 -2.36 3 -1 3 C-0.67 2.01 -0.34 1.02 0 0 Z M-37 45 C-37.38880902 49.14839745 -37.38880902 49.14839745 -35.8125 52.875 C-33.43963721 54.34781139 -31.74086056 54.22223194 -29 54 C-28.19530151 52.29887008 -28.19530151 52.29887008 -28 50 C-29.35814007 46.78287055 -29.35814007 46.78287055 -31 44 C-34.28930404 43.63314303 -34.28930404 43.63314303 -37 45 Z M-27 59 C-29.2477975 61.05233685 -30.0022242 62.00667261 -31 65 C-29.91666667 67.75 -29.91666667 67.75 -28 70 C-26.68 70 -25.36 70 -24 70 C-22.22590192 68.07977297 -22.22590192 68.07977297 -21 66 C-23.37629089 61.85329961 -23.37629089 61.85329961 -27 59 Z M-20 75 C-20 75.99 -20 76.98 -20 78 C-18.35 78 -16.7 78 -15 78 C-15.33 77.01 -15.66 76.02 -16 75 C-17.32 75 -18.64 75 -20 75 Z " fill="#BBBCBF" transform="translate(111,48)"/>
<path d="M0 0 C13.20234573 3.95172253 13.20234573 3.95172253 17.875 9.04296875 C20.36515968 11.33629595 21.89283531 11.73372535 25.1875 12.375 C30.63776339 13.60940371 35.89834295 15.1494122 41.1875 16.9375 C41.94248779 17.17839355 42.69747559 17.41928711 43.4753418 17.66748047 C45.60546875 18.40234375 45.60546875 18.40234375 49 20 C49.80444336 21.86987305 49.80444336 21.86987305 50 24 C48.89569356 26.75200177 47.74217657 29.26057462 46.375 31.875 C46.03082031 32.56980469 45.68664062 33.26460937 45.33203125 33.98046875 C43.01925743 38.51213996 40.38918082 42.20649585 37 46 C35.1883313 44.64124848 33.37690862 43.28218089 31.56640625 41.921875 C29.68203051 40.51074431 27.7933856 39.10530988 25.90234375 37.703125 C25.10521973 37.11035767 25.10521973 37.11035767 24.29199219 36.50561523 C22.74133027 35.35252869 21.18905298 34.20161546 19.63671875 33.05078125 C15.63992537 29.94216418 15.63992537 29.94216418 14 28 C14 27.34 14 26.68 14 26 C13.26394531 25.81824219 12.52789062 25.63648437 11.76953125 25.44921875 C1.33732918 22.7619276 1.33732918 22.7619276 -2 20 C-2 19.01 -2 18.02 -2 17 C-3.65 16.67 -5.3 16.34 -7 16 C-6.67 15.34 -6.34 14.68 -6 14 C-5.071875 14.0825 -4.14375 14.165 -3.1875 14.25 C0.02305088 14.3236053 0.02305088 14.3236053 1.875 12.3125 C3.20607683 9.57639764 3.46233717 8.00519158 3 5 C1.56249809 3.31201173 1.56249809 3.31201173 0 2 C0 1.34 0 0.68 0 0 Z " fill="#BBBCBF" transform="translate(356,78)"/>
<path d="M0 0 C1.15982895 -0.00336868 2.3196579 -0.00673737 3.51463318 -0.01020813 C5.96316977 -0.00990948 8.41174378 0.00532067 10.86010742 0.03442383 C14.6116717 0.07411906 18.35970532 0.05512264 22.11132812 0.02929688 C24.49089915 0.0368552 26.87046233 0.04780786 29.25 0.0625 C30.37297989 0.0555159 31.49595978 0.0485318 32.65296936 0.04133606 C40.43544195 0.182796 40.43544195 0.182796 43.79663086 3.30541992 C44.21307861 4.11599854 44.62952637 4.92657715 45.05859375 5.76171875 C44.383125 5.82230469 43.70765625 5.88289063 43.01171875 5.9453125 C42.1196875 6.02910156 41.22765625 6.11289062 40.30859375 6.19921875 C39.426875 6.28042969 38.54515625 6.36164063 37.63671875 6.4453125 C35.0987792 6.6947214 35.0987792 6.6947214 32.85546875 7.359375 C31.05859375 7.76171875 31.05859375 7.76171875 29.05859375 6.76171875 C28.72859375 7.42171875 28.39859375 8.08171875 28.05859375 8.76171875 C25.99609375 9.88671875 25.99609375 9.88671875 24.05859375 10.76171875 C25.48868377 12.94907227 25.48868377 12.94907227 28.05859375 14.76171875 C30.36576188 15.01148558 32.5255143 14.95131454 34.83984375 14.8046875 C37.05859375 14.76171875 37.05859375 14.76171875 38.83276367 15.25512695 C41.57630209 15.87954751 44.07698519 15.85610386 46.890625 15.82421875 C48.58348633 15.81261719 48.58348633 15.81261719 50.31054688 15.80078125 C52.67252746 15.77486813 55.03450664 15.74882775 57.39648438 15.72265625 C63.06584601 15.68393551 68.47830106 15.71897793 74.05859375 16.76171875 C74.55359375 18.24671875 74.55359375 18.24671875 75.05859375 19.76171875 C74.10082031 19.73851562 73.14304687 19.7153125 72.15625 19.69140625 C70.81120594 19.67259444 69.46615314 19.65440028 68.12109375 19.63671875 C66.83332031 19.61351562 65.54554688 19.5903125 64.21875 19.56640625 C59.98564678 19.62234649 55.90243823 20.17426916 51.7109375 20.75390625 C40.58093543 22.19989697 29.41670374 22.06162443 18.21142578 22.02246094 C14.56526055 22.01173836 10.91958787 22.02241261 7.2734375 22.03515625 C-4.13611301 22.0410755 -15.27259042 21.77066125 -26.57958984 20.20703125 C-30.61318571 19.67273358 -34.43976156 19.55780332 -38.50390625 19.63671875 C-39.74269531 19.65476562 -40.98148438 19.6728125 -42.2578125 19.69140625 C-43.58619141 19.72621094 -43.58619141 19.72621094 -44.94140625 19.76171875 C-44.61140625 19.10171875 -44.28140625 18.44171875 -43.94140625 17.76171875 C-41.96140625 17.76171875 -39.98140625 17.76171875 -37.94140625 17.76171875 C-37.94140625 17.10171875 -37.94140625 16.44171875 -37.94140625 15.76171875 C-37.21179688 15.83390625 -36.4821875 15.90609375 -35.73046875 15.98046875 C-22.95586237 17.11598932 -9.42451703 18.27455395 3.05859375 14.76171875 C3.05859375 14.10171875 3.05859375 13.44171875 3.05859375 12.76171875 C4.04859375 12.76171875 5.03859375 12.76171875 6.05859375 12.76171875 C6.05859375 11.77171875 6.05859375 10.78171875 6.05859375 9.76171875 C5.15238281 9.71273438 4.24617188 9.66375 3.3125 9.61328125 C-3.65041916 9.18592748 -10.18562054 8.50890471 -16.94140625 6.76171875 C-12.63384227 -0.49031677 -7.97843747 -0.10877325 0 0 Z " fill="#F6F6F7" transform="translate(232.94140625,353.23828125)"/>
<path d="M0 0 C3 0.25 3 0.25 5 2.25 C5 3.24 5 4.23 5 5.25 C6.093125 5.023125 7.18625 4.79625 8.3125 4.5625 C12 4.25 12 4.25 13.9375 5.3125 C15.41793945 8.01212488 15.20161999 10.22570019 15 13.25 C15.804375 13.476875 16.60875 13.70375 17.4375 13.9375 C20 15.25 20 15.25 20.9375 17.5625 C21.00854082 20.61725537 20.32526294 22.52151747 19 25.25 C19.66 25.91 20.32 26.57 21 27.25 C20.625 30.375 20.625 30.375 20 33.25 C17.525 33.745 17.525 33.745 15 34.25 C15.04125 35.36375 15.0825 36.4775 15.125 37.625 C15 41.25 15 41.25 13 43.25 C10.31160615 43.51991906 7.70858064 43.33737357 5 43.25 C4.67 44.57 4.34 45.89 4 47.25 C1.1875 47.875 1.1875 47.875 -2 48.25 C-2.99 47.59 -3.98 46.93 -5 46.25 C-5 45.59 -5 44.93 -5 44.25 C-5.99 44.91 -6.98 45.57 -8 46.25 C-11.1875 46.375 -11.1875 46.375 -14 46.25 C-14.37125 45.30125 -14.7425 44.3525 -15.125 43.375 C-16.73063833 40.00079846 -16.73063833 40.00079846 -20.125 38.9375 C-21.07375 38.710625 -22.0225 38.48375 -23 38.25 C-23.33 37.92 -23.66 37.59 -24 37.25 C-23.95875 35.97125 -23.9175 34.6925 -23.875 33.375 C-23.71652609 30.13816443 -23.71652609 30.13816443 -25.5 27.5625 C-26.2425 26.9128125 -26.2425 26.9128125 -27 26.25 C-27.1875 23.5625 -27.1875 23.5625 -27 21.25 C-25.68 20.59 -24.36 19.93 -23 19.25 C-23.226875 17.991875 -23.45375 16.73375 -23.6875 15.4375 C-24.16341493 11.54051543 -24.16341493 11.54051543 -22.875 9.25 C-20.46618158 7.96529684 -18.69027121 8.0318699 -16 8.25 C-15.87625 7.46625 -15.7525 6.6825 -15.625 5.875 C-15 3.25 -15 3.25 -13 1.25 C-10.90076041 1.35496198 -8.93793067 1.7618662 -6.875 2.15625 C-6.25625 2.1871875 -5.6375 2.218125 -5 2.25 C-3 0.25 -3 0.25 0 0 Z M-6 7.25 C-6.33 8.24 -6.66 9.23 -7 10.25 C-9.31 10.58 -11.62 10.91 -14 11.25 C-14.0825 12.19875 -14.165 13.1475 -14.25 14.125 C-15 17.25 -15 17.25 -17.0625 18.625 C-17.701875 18.83125 -18.34125 19.0375 -19 19.25 C-18.67 19.91 -18.34 20.57 -18 21.25 C-17.76923077 26.78846154 -17.76923077 26.78846154 -19 29.25 C-18.0409375 29.559375 -18.0409375 29.559375 -17.0625 29.875 C-15 31.25 -15 31.25 -14.25 34.375 C-14.1675 35.32375 -14.085 36.2725 -14 37.25 C-12.6078125 37.12625 -12.6078125 37.12625 -11.1875 37 C-8 37.25 -8 37.25 -6.125 39.25 C-5.75375 39.91 -5.3825 40.57 -5 41.25 C-4.34 40.59 -3.68 39.93 -3 39.25 C-0.31160615 38.98008094 2.29141936 39.16262643 5 39.25 C5.2475 38.445625 5.495 37.64125 5.75 36.8125 C7 34.25 7 34.25 9.125 33.4375 C9.74375 33.375625 10.3625 33.31375 11 33.25 C11.185625 31.6103125 11.185625 31.6103125 11.375 29.9375 C12 26.25 12 26.25 14 23.25 C13.505 22.858125 13.01 22.46625 12.5 22.0625 C10.54406857 19.69908285 10.75792027 18.23564997 11 15.25 C10.195625 15.023125 9.39125 14.79625 8.5625 14.5625 C7.716875 14.129375 6.87125 13.69625 6 13.25 C5.1875 10.625 5.1875 10.625 5 8.25 C4.01 8.745 4.01 8.745 3 9.25 C-1.05142119 9.50860135 -2.54337669 9.55441554 -6 7.25 Z " fill="#BBBCBF" transform="translate(268,80.75)"/>
<path d="M0 0 C3.57129526 3.5352822 6.91682804 7.03592177 10 11 C10 11.66 10 12.32 10 13 C13.63 13.66 17.26 14.32 21 15 C19.54750167 18.46089107 18.08832147 21.91868854 16.625 25.375 C16.00625 26.85226563 16.00625 26.85226563 15.375 28.359375 C14.97539062 29.30039063 14.57578125 30.24140625 14.1640625 31.2109375 C13.79748535 32.08024902 13.4309082 32.94956055 13.05322266 33.84521484 C12 36 12 36 10 38 C7.34204102 37.87573242 7.34204102 37.87573242 4.00390625 37.35546875 C2.80572266 37.17306641 1.60753906 36.99066406 0.37304688 36.80273438 C-1.51317383 36.49819336 -1.51317383 36.49819336 -3.4375 36.1875 C-4.69111328 35.99607422 -5.94472656 35.80464844 -7.23632812 35.60742188 C-16.48779395 34.17073535 -16.48779395 34.17073535 -20 33 C-20.99 25.08 -21.98 17.16 -23 9 C-19.37 9 -15.74 9 -12 9 C-8.25751456 7.17601476 -8.25751456 7.17601476 -5.3125 4.5 C-4.29800781 3.6646875 -3.28351563 2.829375 -2.23828125 1.96875 C-1.49964844 1.3190625 -0.76101563 0.669375 0 0 Z M-5.125 6.9375 C-5.84945313 7.48277344 -6.57390625 8.02804688 -7.3203125 8.58984375 C-7.87460937 9.05519531 -8.42890625 9.52054688 -9 10 C-9 10.33 -9 10.66 -9 11 C-3.72 11.66 1.56 12.32 7 13 C6.05125 11.515 5.1025 10.03 4.125 8.5 C3.32449219 7.24703125 3.32449219 7.24703125 2.5078125 5.96875 C2.01023437 5.3190625 1.51265625 4.669375 1 4 C-1.80123279 4 -2.91768414 5.25630064 -5.125 6.9375 Z " fill="#BBBCBF" transform="translate(328,40)"/>
<path d="M0 0 C3.45211549 2.03988643 5.7774133 4.66611995 8 8 C7.625 10.1875 7.625 10.1875 7 12 C6.31164062 11.15115234 6.31164062 11.15115234 5.609375 10.28515625 C4.99578125 9.55167969 4.3821875 8.81820312 3.75 8.0625 C3.14671875 7.33160156 2.5434375 6.60070312 1.921875 5.84765625 C-0.13808948 3.86724325 -1.17172124 3.21537995 -4 3 C-8.78250774 5.5438871 -11.62212657 8.84261732 -15 13 C-15.886875 13.70125 -16.77375 14.4025 -17.6875 15.125 C-20.35705766 17.02562287 -20.35705766 17.02562287 -22 21 C-12.1 21 -2.2 21 8 21 C8.33 19.02 8.66 17.04 9 15 C11 17 11 17 11.1953125 20.2578125 C11.17210937 21.53398437 11.14890625 22.81015625 11.125 24.125 C11.10695312 25.40632813 11.08890625 26.68765625 11.0703125 28.0078125 C11.04710937 28.99523437 11.02390625 29.98265625 11 31 C11.7425 30.236875 12.485 29.47375 13.25 28.6875 C19.01960784 23.04901961 19.01960784 23.04901961 23.75 22.8125 C24.8225 22.874375 25.895 22.93625 27 23 C26.78986394 35.87560975 26.78986394 35.87560975 23.8125 39.75 C20.64520233 42.28383814 19.0375768 43 15 43 C12.125 42.0625 12.125 42.0625 10 41 C10.10441406 41.88751953 10.10441406 41.88751953 10.2109375 42.79296875 C10.5261955 47.39423438 10.52808388 49.33650999 7.5625 53.0625 C3.62075346 55.75556087 -0.40172915 55.78686988 -5 55 C-8.5625 53.5 -8.5625 53.5 -11 52 C-11 49.8125 -11 49.8125 -10 47 C-5.24773621 42.93509606 0.14074261 41.19722152 6 39 C-1.59 38.67 -9.18 38.34 -17 38 C-18.258125 35.050625 -19.51625 32.10125 -20.8125 29.0625 C-21.20284424 28.15250244 -21.59318848 27.24250488 -21.99536133 26.30493164 C-24.26613692 20.94534783 -26.25021064 15.55148999 -28 10 C-25.53199953 11.15173355 -23.95216435 12.04783565 -22 14 C-17.93262923 11.04191217 -14.84809895 7.64138562 -11.6484375 3.8046875 C-7.99854605 -0.19116522 -5.24308971 -0.62206149 0 0 Z M19 27 C15.17798717 30.82201283 13.25957005 33.41924388 13 39 C13.33 39.33 13.66 39.66 14 40 C18.88464346 39.7739113 18.88464346 39.7739113 22.9375 37.3125 C24.29942264 34.34831544 24.35071145 32.22654537 24 29 C23.34 28.34 22.68 27.68 22 27 C21.01 27 20.02 27 19 27 Z M-8 31 C-4 32 -4 32 -4 32 Z M-5 47 C-5.33 47.66 -5.66 48.32 -6 49 C-4.31864104 51.03532927 -3.12543087 51.95378863 -0.625 52.875 C2.87485912 53.04165996 4.29723436 52.1914316 7 50 C8.45291273 47.53744315 8.45291273 47.53744315 9 45 C8.67 44.34 8.34 43.68 8 43 C2.29964499 42.5439716 -0.54784247 43.39587248 -5 47 Z " fill="#BBBBBE" transform="translate(166,160)"/>
<path d="M0 0 C3.84153092 3.51459212 6.62312528 7.55415671 9.5625 11.8125 C10.62677569 13.33261163 11.69189868 14.85213034 12.7578125 16.37109375 C13.29567383 17.13921387 13.83353516 17.90733398 14.38769531 18.69873047 C16.88894254 22.2688026 19.39759316 25.83230194 21.9375 29.375 C22.37328369 29.99866455 22.80906738 30.6223291 23.25805664 31.26489258 C26.71408951 36.05308353 30.14055037 38.91491674 36 40 C36.061875 39.278125 36.12375 38.55625 36.1875 37.8125 C37.41244684 33.57229942 40.134325 31.11389711 43.88549805 28.87426758 C47.7181662 27.28960245 51.71955445 27.67265973 55.8125 27.6875 C56.68970703 27.67138672 57.56691406 27.65527344 58.47070312 27.63867188 C65.61633304 27.63332735 70.49730121 28.66052069 75.875 33.6875 C78.79403931 38.23776716 79.65805392 41.82517846 78.5546875 47.1484375 C77.06831043 51.74424705 75.31285335 54.56230028 71 57 C62.93017858 60.27445082 51.76711008 59.83457675 43.51953125 57.2109375 C39.80696279 55.26362014 37.7001552 52.77812266 36 49 C35.84337891 47.96939453 35.84337891 47.96939453 35.68359375 46.91796875 C35.45800781 46.28503906 35.23242188 45.65210938 35 45 C33.17174022 44.18617597 33.17174022 44.18617597 30.9375 43.8125 C19.48078433 40.33585515 12.4852581 25.40480494 6 16 C5.07732906 14.67022158 4.15417618 13.3407774 3.23046875 12.01171875 C1.14740173 9.01210224 -0.92861172 6.00769762 -3 3 C-2.01 2.01 -1.02 1.02 0 0 Z M41 38 C41 38.99 41 39.98 41 41 C44.63 41 48.26 41 52 41 C52 38.36 52 35.72 52 33 C46.69943242 32.22050477 44.58518436 34.41481564 41 38 Z M55 33 C55 35.64 55 38.28 55 41 C55.99 41.495 55.99 41.495 57 42 C57 42.99 57 43.98 57 45 C56.01 45.495 56.01 45.495 55 46 C54.95758277 48.33294775 54.95907063 50.66702567 55 53 C56.54076187 54.54076187 57.9844485 54.24356699 60.125 54.3125 C65.2105872 54.24761213 67.94495323 53.06197409 72 50 C73.84228971 47.0830413 74.00914585 45.43900077 73.9375 42 C72.7592611 38.22963552 70.97554581 36.54010008 68 34 C65.35541621 32.67770811 63.32238699 32.90322806 60.375 32.9375 C58.87066406 32.95103516 58.87066406 32.95103516 57.3359375 32.96484375 C56.17964844 32.98224609 56.17964844 32.98224609 55 33 Z M41 45 C41.59552272 48.11504193 41.92709947 48.92906975 44.3125 51.25 C47.02415741 53.36378211 47.02415741 53.36378211 51 53 C51.04241723 50.66705225 51.04092937 48.33297433 51 46 C49.99163938 44.76732652 49.99163938 44.76732652 47.93359375 44.90234375 C46.69802734 44.91974609 46.69802734 44.91974609 45.4375 44.9375 C44.19806641 44.95103516 44.19806641 44.95103516 42.93359375 44.96484375 C41.97646484 44.98224609 41.97646484 44.98224609 41 45 Z " fill="#BBBCBF" transform="translate(280,66)"/>
<path d="M0 0 C13.2 0 26.4 0 40 0 C35.52502095 3.57998324 32.06233011 5.59753825 27 8 C27.66 12.29 28.32 16.58 29 21 C33.39872772 16.60127228 34.37215902 11.92999214 36 6 C39.96 6 43.92 6 48 6 C48.99 9.3 49.98 12.6 51 16 C46.56759231 19.03936527 46.56759231 19.03936527 43.578125 18.83203125 C40.86837625 18.75012325 40.86837625 18.75012325 38.90234375 20.79296875 C38.25394531 21.58316406 37.60554688 22.37335938 36.9375 23.1875 C36.25558594 24.00476563 35.57367188 24.82203125 34.87109375 25.6640625 C34.25363281 26.43492187 33.63617188 27.20578125 33 28 C32.175 29.010625 31.35 30.02125 30.5 31.0625 C30.005 31.701875 29.51 32.34125 29 33 C27.515 32.505 27.515 32.505 26 32 C23.71929825 25.84210526 23.71929825 25.84210526 25 22 C24.91382274 19.767731 24.76077759 17.53761514 24.5625 15.3125 C24.46066406 14.13300781 24.35882813 12.95351562 24.25390625 11.73828125 C24.12822266 10.38283203 24.12822266 10.38283203 24 9 C23.69449219 9.5775 23.38898438 10.155 23.07421875 10.75 C21.55516982 13.21471038 20.18207112 15.085976 18 17 C14.23942115 17.82996032 10.79786431 17.46734681 7 17 C5.80310547 16.90912109 5.80310547 16.90912109 4.58203125 16.81640625 C-0.650625 16.349375 -0.650625 16.349375 -3 14 C-3.67734501 8.31030191 -2.19666724 5.85777931 0 0 Z " fill="#BBBCBF" transform="translate(244,232)"/>
<path d="M0 0 C1.9375 0 1.9375 0 4 1 C6.91355621 5.37033432 7.62643539 8.80953531 7 14 C6.04598926 15.80933072 5.08741309 17.61665913 4.08984375 19.40234375 C1.64049524 25.24039665 0.99663262 31.77859636 0 38 C-0.99 38 -1.98 38 -3 38 C-2.85919445 35.22882696 -2.71256882 32.45817359 -2.5625 29.6875 C-2.52318359 28.90181641 -2.48386719 28.11613281 -2.44335938 27.30664062 C-2.38051758 26.1706543 -2.38051758 26.1706543 -2.31640625 25.01171875 C-2.27974854 24.31522217 -2.24309082 23.61872559 -2.20532227 22.90112305 C-2 21 -2 21 -1 18 C-7.25354228 21.64789967 -10.80711595 24.49597694 -14 31 C-15.6875 33.9375 -15.6875 33.9375 -18 36 C-23.66030581 37.277772 -28.28429339 35.84732392 -33.2734375 33.16796875 C-35.13545072 31.90837157 -36.57946494 30.74768859 -38 29 C-38.43076923 22.86153846 -38.43076923 22.86153846 -37 20 C-33.26905608 19.31272086 -29.55251504 18.78626377 -25.7890625 18.3203125 C-19.57726246 17.43002194 -16.09416423 15.74407727 -12.1875 10.625 C-9.6898513 7.62782157 -6.96332764 5.59075694 -3.8046875 3.33203125 C-1.8850643 1.98439951 -1.8850643 1.98439951 0 0 Z M-24 21 C-22.02 21 -20.04 21 -18 21 C-17.67 20.34 -17.34 19.68 -17 19 C-20.10551666 19 -21.35261084 19.5393715 -24 21 Z " fill="#BBBCBF" transform="translate(306,116)"/>
<path d="M0 0 C1 1 2 2 3 3 C3.825 3.103125 4.65 3.20625 5.5 3.3125 C8 4 8 4 9.8125 6.4375 C10.92318187 9.76954562 11.12765346 11.78314822 11.07421875 15.22265625 C11.06350342 16.11863525 11.05278809 17.01461426 11.04174805 17.93774414 C11.02797119 18.61828857 11.01419434 19.29883301 11 20 C4.18238106 20.0252689 -2.63522589 20.04283244 -9.45288086 20.05493164 C-11.77417451 20.05997333 -14.09546497 20.06680651 -16.41674805 20.07543945 C-19.74528795 20.08751225 -23.07378602 20.09322979 -26.40234375 20.09765625 C-27.96951393 20.10539818 -27.96951393 20.10539818 -29.56834412 20.11329651 C-30.52926468 20.11337204 -31.49018524 20.11344757 -32.48022461 20.11352539 C-33.33071884 20.115746 -34.18121307 20.11796661 -35.05747986 20.12025452 C-37 20 -37 20 -38 19 C-38.04063832 17.33382885 -38.042721 15.66611905 -38 14 C-33.39980956 11.82801569 -28.79175183 9.6740936 -24.17553711 7.53637695 C-22.60684704 6.80689312 -21.04040587 6.07255259 -19.47631836 5.33325195 C-17.22565296 4.27045759 -14.96743679 3.22548067 -12.70703125 2.18359375 C-12.01100296 1.85032578 -11.31497467 1.5170578 -10.59785461 1.1736908 C-6.69671415 -0.6010153 -4.1049065 -1.54070413 0 0 Z " fill="#BBBCBF" transform="translate(248,135)"/>
<path d="M0 0 C3.20332389 1.40256853 4.10396104 3.66756628 5.79296875 6.671875 C6.39496094 7.71859375 6.99695313 8.7653125 7.6171875 9.84375 C9.10546875 12.921875 9.10546875 12.921875 9.61328125 15.61328125 C10.21607154 18.44065477 11.1257393 19.24833249 13.29296875 21.109375 C18.47330181 25.97995618 22.49892726 31.94948495 24.10546875 38.921875 C20.23086797 39.06772226 16.35697758 39.15612944 12.48046875 39.234375 C10.83884766 39.2972168 10.83884766 39.2972168 9.1640625 39.36132812 C0.03937688 39.49958094 0.03937688 39.49958094 -3.67578125 36.7265625 C-5.89453125 33.921875 -5.89453125 33.921875 -6.19921875 31.37890625 C-6.05742187 30.50621094 -5.915625 29.63351562 -5.76953125 28.734375 C-5.5104013 24.96428824 -5.58202844 23.39709714 -7.6875 20.1953125 C-9.15632031 18.52171689 -10.67302084 16.88848975 -12.2421875 15.30859375 C-13.89453125 12.921875 -13.89453125 12.921875 -13.91796875 9.8359375 C-12.68952521 6.33815551 -11.60527303 5.47817132 -8.45703125 3.609375 C-7.65394531 3.11824219 -6.85085937 2.62710938 -6.0234375 2.12109375 C-2.10395583 -0.08676106 -2.10395583 -0.08676106 0 0 Z M-2.89453125 18.921875 C-2.69254906 21.00801937 -2.45683804 23.09091568 -2.20703125 25.171875 C-2.07941406 26.33203125 -1.95179688 27.4921875 -1.8203125 28.6875 C-0.70303162 32.59091168 0.76261013 33.7401062 4.10546875 35.921875 C4.76546875 35.591875 5.42546875 35.261875 6.10546875 34.921875 C5.58984375 34.035 5.07421875 33.148125 4.54296875 32.234375 C3.00979936 28.70141945 2.82335479 27.47234444 4.10546875 23.921875 C4.76546875 23.261875 5.42546875 22.601875 6.10546875 21.921875 C6.10546875 20.931875 6.10546875 19.941875 6.10546875 18.921875 C3.13546875 18.921875 0.16546875 18.921875 -2.89453125 18.921875 Z M7.10546875 26.921875 C8.10546875 29.921875 8.10546875 29.921875 8.10546875 29.921875 Z " fill="#BBBCBF" transform="translate(204.89453125,229.078125)"/>
<path d="M0 0 C1.56463064 0.25824001 3.1266645 0.53223319 4.6875 0.8125 C5.55761719 0.96332031 6.42773438 1.11414062 7.32421875 1.26953125 C10.40233589 2.10983476 12.46670023 3.0476931 15 5 C16.3359375 7.671875 16.3359375 7.671875 17.375 10.75 C19.33259548 15.922305 21.42207888 19.05943923 25.64453125 22.59765625 C27 24 27 24 27 27 C23.31930113 25.46356148 21.01224796 23.21849055 18.25 20.375 C17.45078125 19.55773437 16.6515625 18.74046875 15.828125 17.8984375 C15.22484375 17.27195312 14.6215625 16.64546875 14 16 C14.26814825 21.00543396 14.78882867 24.05216725 17.6875 28.1875 C20.02214167 31.68263607 20.02214167 31.68263607 19.8125 34.6875 C17.11757266 38.12585558 14.02962738 40.31160864 10 42 C5.94763884 41.92354036 4.38153336 41.25435557 1 39 C0.72971626 35.28359861 0.819067 32.542799 2 29 C1.1270975 26.3812925 0.19681868 23.90925572 -0.875 21.375 C-1.15730469 20.68148437 -1.43960938 19.98796875 -1.73046875 19.2734375 C-2.95932797 15.88859137 -2.95932797 15.88859137 -5 13 C-5.86647821 8.23436984 -3.62620831 5.37994082 -1.09375 1.57421875 C-0.7328125 1.05472656 -0.371875 0.53523438 0 0 Z M8 10 C6.5393715 12.64738916 6 13.89448334 6 17 C7.32 16.67 8.64 16.34 10 16 C10 14.35 10 12.7 10 11 C9.34 10.67 8.68 10.34 8 10 Z M2 12 C1.67 13.32 1.34 14.64 1 16 C1.66 16 2.32 16 3 16 C2.67 14.68 2.34 13.36 2 12 Z " fill="#BBBCBF" transform="translate(160,36)"/>
<path d="M0 0 C2 0.33333333 4 0.66666667 6 1 C6.33 0.67 6.66 0.34 7 0 C8.99958364 -0.04080783 11.00045254 -0.04254356 13 0 C15.125 5.625 15.125 5.625 14 9 C14.99 10.32 15.98 11.64 17 13 C12.71 19.27 8.42 25.54 4 32 C0.43023388 31.10755847 -0.88771342 30.58421494 -3.671875 28.49609375 C-4.33574219 28.00302734 -4.99960937 27.50996094 -5.68359375 27.00195312 C-6.36550781 26.48568359 -7.04742187 25.96941406 -7.75 25.4375 C-8.44738281 24.91736328 -9.14476562 24.39722656 -9.86328125 23.86132812 C-11.57974556 22.57985819 -13.29044431 21.29067202 -15 20 C-14.40419011 16.68238067 -13.31877738 14.87249064 -11.09375 12.36328125 C-10.22556641 11.37424805 -10.22556641 11.37424805 -9.33984375 10.36523438 C-8.73269531 9.68783203 -8.12554687 9.01042969 -7.5 8.3125 C-6.89285156 7.62349609 -6.28570312 6.93449219 -5.66015625 6.22460938 C-1.40066964 1.40066964 -1.40066964 1.40066964 0 0 Z M8 2 C7.67 2.99 7.34 3.98 7 5 C9.475 5.99 9.475 5.99 12 7 C12.33 6.01 12.66 5.02 13 4 C12.34 3.34 11.68 2.68 11 2 C10.01 2 9.02 2 8 2 Z " fill="#BBBCBF" transform="translate(377,47)"/>
<path d="M0 0 C6.30015541 5.37366197 9.66492124 10.22913873 12.28125 18.078125 C13.10387159 28.61400919 12.01167338 36.19522358 5.15625 44.390625 C-0.72233547 50.51652959 -6.91613366 53.51827369 -15.3984375 54.109375 C-24.27579839 53.98981458 -31.20107428 51.31457995 -37.6640625 45.25390625 C-44.57249296 37.8974395 -46.32632407 31.37466683 -46.0703125 21.33203125 C-45.24573034 13.70006523 -42.17860807 7.41389538 -36.71875 2.078125 C-26.03820087 -6.16771831 -11.41188431 -8.06702167 0 0 Z M-36.71875 7.078125 C-42.32195329 14.15585547 -43.72604679 21.22128372 -42.71875 30.078125 C-40.2532048 38.32626332 -35.91453178 43.63884085 -28.62109375 48.0625 C-22.44122583 51.36181347 -13.93065216 51.19146219 -7.265625 49.4296875 C-0.42010394 46.27643567 4.68161213 41.06599093 7.71875 34.203125 C10.49820425 26.2377626 9.89705856 20.03919706 6.46484375 12.3671875 C2.76009664 5.20223105 -2.30881665 1.78933968 -9.71875 -0.921875 C-20.25956306 -3.54901954 -28.91996222 -0.190133 -36.71875 7.078125 Z " fill="#BBBCBF" transform="translate(342.71875,34.921875)"/>
<path d="M0 0 C0 0.66 0 1.32 0 2 C0.66 2 1.32 2 2 2 C5.62005229 8.10883824 7.03141854 12.88676869 6 20 C4.5 23.625 4.5 23.625 3 26 C3.66 26.33 4.32 26.66 5 27 C4.01 29.475 4.01 29.475 3 32 C-1 32 -1 32 -2.75 30.5 C-3.1625 30.005 -3.575 29.51 -4 29 C-3.67 28.01 -3.34 27.02 -3 26 C-3.99 25.67 -4.98 25.34 -6 25 C-6 24.34 -6 23.68 -6 23 C-6.66 23 -7.32 23 -8 23 C-8 24.98 -8 26.96 -8 29 C-8.66 29 -9.32 29 -10 29 C-10.12375 29.928125 -10.12375 29.928125 -10.25 30.875 C-11 33 -11 33 -12.5625 34.3125 C-16.23618337 35.3486671 -19.24870119 34.62521647 -23 34 C-23 33.01 -23 32.02 -23 31 C-23.99 31 -24.98 31 -26 31 C-27.42857143 22.57142857 -27.42857143 22.57142857 -25 18 C-24.34 18 -23.68 18 -23 18 C-23 17.34 -23 16.68 -23 16 C-14.42857143 14.57142857 -14.42857143 14.57142857 -11 17 C-11.33 16.34 -11.66 15.68 -12 15 C-12.2430836 10.05730019 -12.25495121 6.50990242 -10 2 C-9.34 2 -8.68 2 -8 2 C-8 1.34 -8 0.68 -8 0 C-4.71023192 -1.09658936 -3.28696233 -0.79953138 0 0 Z M-7 3 C-9.34946143 7.69892287 -8.39961536 13.73455135 -6.875 18.5625 C-5.15836252 21.30098125 -5.15836252 21.30098125 -1.8125 21.875 C-0.884375 21.91625 0.04375 21.9575 1 22 C3.19429082 17.24570322 3.05882002 13.97439278 1.765625 9.05859375 C0.71416469 6.23145303 -0.50413906 4.68837652 -3 3 C-4.32 3 -5.64 3 -7 3 Z M-19 19 C-21.16641665 20.66545339 -21.16641665 20.66545339 -23 23 C-22.80398092 25.74426716 -22.22394754 27.55210492 -21 30 C-16.2102679 30.23428313 -16.2102679 30.23428313 -12 28 C-11.7497843 24.91634129 -11.7497843 24.91634129 -12 22 C-14.31 21.01 -16.62 20.02 -19 19 Z " fill="#BBBCBF" transform="translate(375,111)"/>
<path d="M0 0 C3.04128913 1.10592332 5.78672704 2.41737594 8.5625 4.0625 C11.22078431 5.5608057 13.0501226 6.52801962 16 7 C16.29616391 12.72583554 16.09106663 15.96560456 13 21 C10.29296875 23.4140625 10.29296875 23.4140625 7.1875 25.625 C6.17042969 26.35976562 5.15335938 27.09453125 4.10546875 27.8515625 C1.0917084 29.93655394 -1.94252283 31.97996277 -5 34 C-5.66 33.67 -6.32 33.34 -7 33 C-5.55218207 29.55571735 -3.72305391 27.63869038 -0.875 25.25 C-0.15054688 24.63640625 0.57390625 24.0228125 1.3203125 23.390625 C1.87460938 22.93171875 2.42890625 22.4728125 3 22 C2.34 21.34 1.68 20.68 1 20 C-3.9003076 20.2773759 -6.8941643 21.44772375 -11 24 C-12.32 24 -13.64 24 -15 24 C-15.84511824 22.27656245 -16.67563354 20.54595947 -17.5 18.8125 C-17.9640625 17.84957031 -18.428125 16.88664062 -18.90625 15.89453125 C-19.99592921 13.01077307 -20.22277524 11.04645139 -20 8 C-16.22699642 9.0197307 -15.19793856 9.65872662 -13.1875 13.125 C-12.795625 14.07375 -12.40375 15.0225 -12 16 C-7.69680903 15.4262412 -3.40800599 14.77168091 0.875 14.0625 C1.82117188 13.90910156 2.76734375 13.75570312 3.7421875 13.59765625 C4.48726562 13.40042969 5.23234375 13.20320312 6 13 C6.33 12.34 6.66 11.68 7 11 C6.4225 10.61328125 5.845 10.2265625 5.25 9.828125 C4.5075 9.30734375 3.765 8.7865625 3 8.25 C2.2575 7.73953125 1.515 7.2290625 0.75 6.703125 C0.1725 6.14109375 -0.405 5.5790625 -1 5 C-1 1 -1 1 0 0 Z " fill="#BBBBBE" transform="translate(180,210)"/>
<path d="M0 0 C2.52197266 -0.34057617 2.52197266 -0.34057617 5.6640625 -0.29296875 C6.78554688 -0.28330078 7.90703125 -0.27363281 9.0625 -0.26367188 C10.238125 -0.23853516 11.41375 -0.21339844 12.625 -0.1875 C13.80835938 -0.17396484 14.99171875 -0.16042969 16.2109375 -0.14648438 C19.14107539 -0.11103916 22.07031459 -0.06162769 25 0 C24.52911848 1.43808233 24.05603621 2.87544416 23.58203125 4.3125 C23.3188208 5.11300781 23.05561035 5.91351563 22.78442383 6.73828125 C21.81617193 9.53002902 20.9166052 11.72846792 19 14 C14.53379972 15.45636966 12.19756166 14.76739439 8 13 C4.63063138 13.10868931 3.61166875 14.33978985 1 16.625 C-2 19 -2 19 -4.3125 18.875 C-6 18 -6 18 -7 17 C-7.4309289 13.62028619 -7.49576853 10.37338153 -7 7 C-4.625 4.5625 -4.625 4.5625 -2 3 C-1.34 2.01 -0.68 1.02 0 0 Z " fill="#BBBCBF" transform="translate(255,183)"/>
<path d="M0 0 C1.11328125 1.64453125 1.11328125 1.64453125 2.3125 3.8125 C4.44231895 7.34762471 6.10442884 9.34438226 10 11 C10.80050781 11.06960937 11.60101563 11.13921875 12.42578125 11.2109375 C16.14421496 12.35073053 16.85162131 14.33341151 18.6875 17.6875 C19.26886719 18.72261719 19.85023438 19.75773437 20.44921875 20.82421875 C22.95893701 25.96376773 24.26494897 30.13709234 24.125 35.875 C24.10695312 36.84179688 24.08890625 37.80859375 24.0703125 38.8046875 C24.04710937 39.52914062 24.02390625 40.25359375 24 41 C21.03 40.67 18.06 40.34 15 40 C14.79375 38.741875 14.5875 37.48375 14.375 36.1875 C12.08259021 26.16998326 6.73742772 19.14897354 -0.73046875 12.2890625 C-3.01302605 9.98686185 -4.57137892 7.90550639 -6 5 C-5.3125 2.75 -5.3125 2.75 -4 1 C-2 0 -2 0 0 0 Z " fill="#BBBBBE" transform="translate(215,220)"/>
<path d="M0 0 C5.5701607 2.62566498 10.8149272 2.84145203 16.875 2 C19.31904523 1.12090156 21.55290736 0.06826114 23.8671875 -1.10546875 C26.96939852 -2.48758222 29.52527865 -2.29383521 32.875 -2 C34.050625 -1.91685547 34.050625 -1.91685547 35.25 -1.83203125 C40.64857329 -1.39586603 45.65916789 -0.44884225 50.875 1 C50.875 1.99 50.875 2.98 50.875 4 C49.885 4 48.895 4 47.875 4 C47.875 4.66 47.875 5.32 47.875 6 C47.12734375 5.98839844 46.3796875 5.97679687 45.609375 5.96484375 C44.62453125 5.95582031 43.6396875 5.94679688 42.625 5.9375 C41.65046875 5.92589844 40.6759375 5.91429687 39.671875 5.90234375 C37.00138294 5.89238386 37.00138294 5.89238386 34.99050903 6.49702454 C32.66982479 7.04878169 30.61425784 7.13393534 28.22998047 7.14526367 C26.85868484 7.15483345 26.85868484 7.15483345 25.45968628 7.16459656 C24.48041168 7.16570938 23.50113708 7.1668222 22.4921875 7.16796875 C21.48157257 7.17129715 20.47095764 7.17462555 19.42971802 7.17805481 C17.29641169 7.18311238 15.16309747 7.1854635 13.02978516 7.18530273 C9.75540307 7.18749638 6.48135406 7.20568407 3.20703125 7.22460938 C1.13541782 7.22754203 -0.93619721 7.22952768 -3.0078125 7.23046875 C-3.99113556 7.23765427 -4.97445862 7.24483978 -5.98757935 7.25224304 C-6.89547211 7.24916641 -7.80336487 7.24608978 -8.73876953 7.24291992 C-9.93978806 7.24505745 -9.93978806 7.24505745 -11.16506958 7.24723816 C-13.125 7 -13.125 7 -15.125 5 C-14.75 1.875 -14.75 1.875 -14.125 -1 C-8.84697473 -2.62400777 -4.90548641 -2.51040263 0 0 Z " fill="#BDBDC3" transform="translate(188.125,362)"/>
<path d="M0 0 C1.08525027 3.42840425 1.02021474 6.36616186 0.75 9.9375 C0.68296875 10.95714844 0.6159375 11.97679687 0.546875 13.02734375 C-0.26761273 17.45466632 -2.37745538 21.24971428 -6 24 C-8.12109375 24.36328125 -8.12109375 24.36328125 -10.4375 24.3125 C-11.19933594 24.30863281 -11.96117187 24.30476563 -12.74609375 24.30078125 C-15.19529127 23.9739386 -16.86700917 23.21954601 -19 22 C-18.67 22.99 -18.34 23.98 -18 25 C-17.62790399 29.01863693 -17.58579062 31.28309915 -19.625 34.8125 C-22.45524613 37.41930564 -24.21982539 38.27304334 -28 39 C-30.75563202 38.78129905 -33.29743558 38.47722827 -36 38 C-37.33276827 37.80852478 -38.66607539 37.62074621 -40 37.4375 C-40.99 37.293125 -41.98 37.14875 -43 37 C-43.495 35.515 -43.495 35.515 -44 34 C-39.5449185 26.57486417 -31.1967064 23.30717084 -23.1875 20.8125 C-18.85193265 18.34717739 -17.3205749 15.04318659 -14.8359375 10.8046875 C-11.5126309 5.72780635 -6.40148782 0 0 0 Z M-9.66796875 8.3203125 C-12.8340584 12.08055265 -15 14.85565414 -15 20 C-13.18582291 22.18973497 -13.18582291 22.18973497 -10.6875 22.4375 C-6.73485147 21.79404559 -5.4038088 20.13830594 -3 17 C-1.93318991 13.45426142 -1.93318991 13.45426142 -2 10 C-2.66 9.01 -3.32 8.02 -4 7 C-7.83182559 6.58622939 -7.83182559 6.58622939 -9.66796875 8.3203125 Z M-28.5625 25.1875 C-29.32691406 25.44917969 -30.09132813 25.71085937 -30.87890625 25.98046875 C-33.11630086 27.05590152 -34.45119618 28.06773028 -36 30 C-35.99530794 32.10231241 -35.99530794 32.10231241 -35 34 C-31.45870816 36.36086122 -30.17249782 36.57269578 -26 36 C-23.41955698 34.58397458 -22.07372381 33.22184694 -20 31 C-19.49620971 28.28694223 -19.49620971 28.28694223 -20 26 C-23.31627234 23.92260844 -24.90596415 23.86966221 -28.5625 25.1875 Z " fill="#BBBCBF" transform="translate(288,40)"/>
<path d="M0 0 C1.65 0.33 3.3 0.66 5 1 C4.9175 1.7425 4.835 2.485 4.75 3.25 C5.07403732 6.81441057 6.4134713 7.64861027 9 10 C9.33 10.99 9.66 11.98 10 13 C11.32 12.01 12.64 11.02 14 10 C13.814375 9.360625 13.62875 8.72125 13.4375 8.0625 C13.293125 7.381875 13.14875 6.70125 13 6 C14 5 14 5 16.5625 4.9375 C17.7690625 4.9684375 17.7690625 4.9684375 19 5 C18.9175 5.7425 18.835 6.485 18.75 7.25 C18.69970803 10.1389541 18.69970803 10.1389541 21 11.8125 C23.23662662 14.25881036 23.33882124 14.88156129 23.4375 18.0625 C23 22 23 22 21.9375 24 C18.82090489 25.60856522 16.43737531 25.42213381 13 25 C10.09282927 22.78136971 9.16018357 21.48055071 8 18 C7.29875 18.53625 6.5975 19.0725 5.875 19.625 C3 21 3 21 -0.1875 20.3125 C-3 19 -3 19 -5 17 C-5.46872658 12.85958188 -5.57604468 10.78044763 -3.0625 7.375 C-2.381875 6.59125 -1.70125 5.8075 -1 5 C-0.21053391 2.31492671 -0.21053391 2.31492671 0 0 Z M1 8 C-0.10836423 9.88316159 -0.10836423 9.88316159 -1 12 C-0.67 12.66 -0.34 13.32 0 14 C1.65 13.67 3.3 13.34 5 13 C4.73323796 11.01508358 4.73323796 11.01508358 4 9 C3.01 8.67 2.02 8.34 1 8 Z M15 13 C14.34 14.32 13.68 15.64 13 17 C14.88316159 18.10836423 14.88316159 18.10836423 17 19 C17.66 18.67 18.32 18.34 19 18 C18.67 16.35 18.34 14.7 18 13 C17.01 13 16.02 13 15 13 Z " fill="#BBBCBF" transform="translate(200,47)"/>
<path d="M0 0 C3.15680523 2.74143612 4.16221751 5.22625704 5.0625 9.1875 C5.5990452 13.22057573 5.5990452 13.22057573 9 15 C0.09 15 -8.82 15 -18 15 C-18 13.35 -18 11.7 -18 10 C-19.32 9.67 -20.64 9.34 -22 9 C-22.5625 7.0625 -22.5625 7.0625 -23 5 C-22.67 4.67 -22.34 4.34 -22 4 C-20.3603125 4.0928125 -20.3603125 4.0928125 -18.6875 4.1875 C-14.97207833 4.37641732 -14.97207833 4.37641732 -12.75 2.0625 C-12.1725 1.381875 -11.595 0.70125 -11 0 C-7.1485407 -1.28381977 -3.85481869 -1.11361429 0 0 Z " fill="#BBBCBF" transform="translate(334,140)"/>
<path d="M0 0 C3.5625 1.5 3.5625 1.5 6 3 C6 4.32 6 5.64 6 7 C6.99 7.33 7.98 7.66 9 8 C9 11.3 9 14.6 9 18 C8.01 18.33 7.02 18.66 6 19 C6 20.32 6 21.64 6 23 C5.195625 23.12375 4.39125 23.2475 3.5625 23.375 C2.716875 23.58125 1.87125 23.7875 1 24 C0.67 24.66 0.34 25.32 0 26 C-1.62600941 25.9129995 -3.25089678 25.8048219 -4.875 25.6875 C-6.23238281 25.60048828 -6.23238281 25.60048828 -7.6171875 25.51171875 C-10 25 -10 25 -12 22 C-12.99 21.67 -13.98 21.34 -15 21 C-16.62323754 17.24092359 -17.23994929 14.07913787 -17 10 C-16.34 10 -15.68 10 -15 10 C-15.20625 9.38125 -15.4125 8.7625 -15.625 8.125 C-15.74875 7.42375 -15.8725 6.7225 -16 6 C-15.34 5.34 -14.68 4.68 -14 4 C-13.01 4 -12.02 4 -11 4 C-11 3.01 -11 2.02 -11 1 C-7.55389094 -0.72305453 -3.77537825 -0.379435 0 0 Z M-10 6 C-10 7.32 -10 8.64 -10 10 C-10.99 10.495 -10.99 10.495 -12 11 C-11.3443851 15.12008086 -11.3443851 15.12008086 -10 19 C-6.90605223 20.68149336 -5.10099674 21.17384159 -1.625 20.625 C-1.08875 20.41875 -0.5525 20.2125 0 20 C0 19.34 0 18.68 0 18 C0.99 18 1.98 18 3 18 C4.13159713 12.91915601 4.13159713 12.91915601 3 8 C0.82134568 5.82134568 -0.41781615 5.05821838 -3.5 4.75 C-5.76668984 4.97666898 -7.81889221 5.35374584 -10 6 Z " fill="#BBBCBF" transform="translate(142,40)"/>
<path d="M0 0 C0.60328125 0.34933594 1.2065625 0.69867188 1.828125 1.05859375 C3.02695312 1.74115234 3.02695312 1.74115234 4.25 2.4375 C5.03890625 2.88996094 5.8278125 3.34242188 6.640625 3.80859375 C12.82033883 6.92914461 20.24001307 7.09277857 26.8359375 5.17578125 C30.51362185 3.72519901 33.70380424 2.19746384 37 0 C37 0.66 37 1.32 37 2 C39.97 2 42.94 2 46 2 C45.34 2.99 44.68 3.98 44 5 C43.67 5.70125 43.34 6.4025 43 7.125 C42 9 42 9 40 10 C37.16485904 10.09925522 34.35484346 10.1398049 31.51953125 10.1328125 C30.25021004 10.13424759 30.25021004 10.13424759 28.95524597 10.13571167 C27.16051153 10.13639308 25.36577464 10.13454153 23.57104492 10.13037109 C20.84092561 10.12505535 18.11097332 10.13030018 15.38085938 10.13671875 C13.63541631 10.13605731 11.88997334 10.1347748 10.14453125 10.1328125 C9.33385696 10.13483673 8.52318268 10.13686096 7.6879425 10.13894653 C3.0223874 10.11994149 -1.39738099 9.77279489 -6 9 C-6 7.35 -6 5.7 -6 4 C-4.7934375 3.566875 -4.7934375 3.566875 -3.5625 3.125 C-0.8673532 2.26737432 -0.8673532 2.26737432 0 0 Z " fill="#BEBEC4" transform="translate(278,358)"/>
<path d="M0 0 C-1 2 -1 2 -3 2.875 C-3.99 3.431875 -3.99 3.431875 -5 4 C-5.33 5.32 -5.66 6.64 -6 8 C12.48 8 30.96 8 50 8 C49.67 8.66 49.34 9.32 49 10 C46.09084002 10.96971999 44.23846551 11.12657687 41.21240234 11.12939453 C40.24064056 11.13254669 39.26887878 11.13569885 38.26766968 11.13894653 C37.21769806 11.1369223 36.16772644 11.13489807 35.0859375 11.1328125 C34.00172516 11.13376923 32.91751282 11.13472595 31.80044556 11.13571167 C29.50221702 11.13639279 27.20398657 11.13454327 24.90576172 11.13037109 C21.4097859 11.12505292 17.91394039 11.13030231 14.41796875 11.13671875 C12.18229139 11.13605735 9.9466141 11.13477491 7.7109375 11.1328125 C6.15419815 11.13584885 6.15419815 11.13584885 4.56600952 11.13894653 C-1.37322942 11.12004887 -7.10934136 10.76359039 -13 10 C-13.928125 9.896875 -14.85625 9.79375 -15.8125 9.6875 C-18.67101122 8.78911076 -20.05755218 7.23021787 -22 5 C-14.79984724 -0.31439846 -8.61931504 -0.15330798 0 0 Z " fill="#D6D7DB" transform="translate(278,359)"/>
<path d="M0 0 C2.25 0.1875 2.25 0.1875 5 1 C6.36176922 2.64351457 7.68962066 4.31522656 9 6 C11.04728277 7.63782621 13.14856376 9.16012183 15.29296875 10.66796875 C17.6279994 12.49004072 17.947084 13.63840732 18.375 16.5625 C17.84518777 21.4191121 15.54937284 24.90279365 13 29 C12.34 29 11.68 29 11 29 C10.54109375 27.865625 10.0821875 26.73125 9.609375 25.5625 C8.98974877 24.04159926 8.36994772 22.52076972 7.75 21 C7.44964844 20.25621094 7.14929688 19.51242188 6.83984375 18.74609375 C5.02288212 14.30033657 3.05458305 10.03643216 0.74316406 5.82421875 C0 4 0 4 0 0 Z " fill="#BBBABD" transform="translate(122,133)"/>
<path d="M0 0 C0 0.66 0 1.32 0 2 C0.99 2 1.98 2 3 2 C5.86613931 7.73227861 7.27949773 12.63926283 5.42578125 18.95703125 C4.37125143 21.60730461 3.31294975 23.69822703 1.25 25.6875 C0.8375 26.120625 0.425 26.55375 0 27 C0.40929986 29.05396726 0.40929986 29.05396726 1 31 C0.34 31.66 -0.32 32.32 -1 33 C-3 32.8125 -3 32.8125 -5 32 C-5.66 31.01 -6.32 30.02 -7 29 C-6.34 28.34 -5.68 27.68 -5 27 C-5.61875 26.443125 -6.2375 25.88625 -6.875 25.3125 C-10.83532931 21.00272987 -11.39064202 16.96836229 -11.2578125 11.28515625 C-10.85102809 7.67956716 -9.75367358 5.18259279 -8 2 C-4.77208445 -0.1519437 -3.71599191 -0.20086443 0 0 Z M-5.75 4.9375 C-8.04003077 8.71605078 -8.5105426 12.79327453 -7.52734375 17.04296875 C-6.77500504 19.20199054 -6.77500504 19.20199054 -5 22 C-2.93109581 23.04289755 -2.93109581 23.04289755 -1 23 C1.52929137 20.03083187 2.73891936 17.91620959 3 14 C2.48770195 10.95694958 1.78637005 7.98300704 1 5 C-2.44682829 3.90386658 -2.44682829 3.90386658 -5.75 4.9375 Z " fill="#BBBCBF" transform="translate(188,70)"/>
<path d="M0 0 C4.72094364 5.32619282 4.59009506 10.80175189 4.3984375 17.73828125 C3.74635072 23.07644262 1.73982602 25.26017398 -2 29 C-5.83944423 29.33386472 -8.9150935 29.44664998 -12 27 C-15.11290374 21.12007071 -16.73476319 15.44362795 -15.1875 8.8125 C-14.30425945 5.97683298 -13.48603239 3.54748409 -12 1 C-11.34 1 -10.68 1 -10 1 C-10 0.34 -10 -0.32 -10 -1 C-5.8880184 -2.37066053 -3.96851748 -1.67095473 0 0 Z M-9.1875 3.875 C-13.05699829 8.41165317 -12.43568125 13.27159839 -12 19 C-11.11750197 22.61014831 -11.11750197 22.61014831 -9 25 C-5.91038542 25.97474816 -5.91038542 25.97474816 -3 26 C0.33446655 20.26888561 2.24011026 15.67751677 1 9 C-0.10965694 6.39804579 -1.39562387 4.35642744 -3 2 C-6.97401354 1.56613908 -6.97401354 1.56613908 -9.1875 3.875 Z " fill="#BBBCBF" transform="translate(316,234)"/>
<path d="M0 0 C0.99 0.33 1.98 0.66 3 1 C2.67 1.66 2.34 2.32 2 3 C2.64066406 2.98839844 3.28132813 2.97679687 3.94140625 2.96484375 C9.08653222 2.91116881 13.93024924 3.11830422 19 4 C18.69217504 5.64671412 18.37860766 7.29235576 18.0625 8.9375 C17.80146484 10.31228516 17.80146484 10.31228516 17.53515625 11.71484375 C17 14 17 14 16 15 C13.7109392 15.12586907 11.41748882 15.17577971 9.125 15.1875 C7.86945313 15.20167969 6.61390625 15.21585938 5.3203125 15.23046875 C2 15 2 15 -1 13 C-1.2982655 8.45145106 -1.10962199 4.43848796 0 0 Z " fill="#BBBABD" transform="translate(319,183)"/>
<path d="M0 0 C0 0.66 0 1.32 0 2 C0.66 2 1.32 2 2 2 C4.76968064 6.93775033 5.5930485 12.61543025 4.61328125 18.20703125 C4.14799635 19.82727868 3.58435917 21.41879283 3 23 C1.35 23.33 -0.3 23.66 -2 24 C-1.67 23.38125 -1.34 22.7625 -1 22.125 C0.70380222 16.80061806 0.50955219 11.44585052 -0.625 6 C-2.58133959 3.15441514 -4.72624398 2.7828547 -8 2 C-8 2.66 -8 3.32 -8 4 C-8.66 4 -9.32 4 -10 4 C-11.46728881 11.33644407 -12.23781048 17.4919339 -8 24 C-5.95053601 25.85315257 -5.95053601 25.85315257 -4 27 C-5.98 27.99 -5.98 27.99 -8 29 C-11.80666702 26.2952629 -13.60201344 24.44929968 -15 20 C-15.73297311 13.01295764 -15.37782201 7.19267369 -12 1 C-11.34 1 -10.68 1 -10 1 C-10 0.34 -10 -0.32 -10 -1 C-6.06329512 -2.31223496 -3.87511856 -1.24296256 0 0 Z " fill="#BBBBBE" transform="translate(182,133)"/>
<path d="M0 0 C1.32 0 2.64 0 4 0 C4 0.99 4 1.98 4 3 C6.475 3.495 6.475 3.495 9 4 C9.70074844 7.153368 10 9.72724974 10 13 C3.07 13 -3.86 13 -11 13 C-10.34 9.7 -9.68 6.4 -9 3 C-6.04335481 1.5216774 -3.25770263 1.93967217 0 2 C0 1.34 0 0.68 0 0 Z " fill="#BBBCBF" transform="translate(253,255)"/>
<path d="M0 0 C0 0.66 0 1.32 0 2 C-0.66 2.66 -1.32 3.32 -2 4 C-2.16687448 6.58354218 -2.16687448 6.58354218 -2 9 C-2.99 9 -3.98 9 -5 9 C-5.35771484 9.82951172 -5.35771484 9.82951172 -5.72265625 10.67578125 C-7.30042955 13.54665315 -9.24761706 15.75309811 -11.4375 18.1875 C-12.21996094 19.06792969 -13.00242187 19.94835937 -13.80859375 20.85546875 C-16 23 -16 23 -19 24 C-19 23.34 -19 22.68 -19 22 C-19.99 21.67 -20.98 21.34 -22 21 C-21.43388509 17.15912806 -19.7085666 15.32340493 -17.0625 12.5625 C-14.09954334 9.47048534 -12.51439192 6.98631416 -11 3 C-9 1.75 -9 1.75 -7 1 C-4.53721199 -0.231394 -2.7204945 -0.07159196 0 0 Z " fill="#BBBCBF" transform="translate(414,70)"/>
<path d="M0 0 C2.475 0.495 2.475 0.495 5 1 C5 1.66 5 2.32 5 3 C4.01 3 3.02 3 2 3 C2.103125 3.886875 2.20625 4.77375 2.3125 5.6875 C1.97368555 9.27893314 1.34659672 10.12548756 -1.2890625 12.43359375 C-3.63392838 14.58037735 -5.69727551 16.94037916 -7.8125 19.3125 C-8.60269531 20.19550781 -9.39289063 21.07851562 -10.20703125 21.98828125 C-11.09455078 22.98408203 -11.09455078 22.98408203 -12 24 C-14.4375 23.1875 -14.4375 23.1875 -17 22 C-17.33 21.01 -17.66 20.02 -18 19 C-17.07767578 18.00419922 -17.07767578 18.00419922 -16.13671875 16.98828125 C-15.32847656 16.10527344 -14.52023437 15.22226563 -13.6875 14.3125 C-12.48673828 13.00732422 -12.48673828 13.00732422 -11.26171875 11.67578125 C-7.41380856 7.3589707 -7.41380856 7.3589707 -6 2 C-4.02 2 -2.04 2 0 2 C0 1.34 0 0.68 0 0 Z " fill="#BBBCBF" transform="translate(401,63)"/>
<path d="M0 0 C3.96 0 7.92 0 12 0 C12 1.32 12 2.64 12 4 C7.545 4.495 7.545 4.495 3 5 C3.42152344 5.65226563 3.84304688 6.30453125 4.27734375 6.9765625 C9.71880492 15.6572935 9.71880492 15.6572935 10 21 C8.02 21 6.04 21 4 21 C4.37125 19.948125 4.37125 19.948125 4.75 18.875 C5.09959252 14.85468598 3.39182187 13.11661638 1 10 C-0.98 10.33 -2.96 10.66 -5 11 C-4.5205537 15.21912747 -3.83374881 17.79663178 -1 21 C-3.375 21.1875 -3.375 21.1875 -6 21 C-8.48321144 17.27518283 -8.64811625 14.31550575 -8 10 C-6.65426167 6.4344871 -5.0302214 3.658197 -1.75 1.5625 C-1.1725 1.376875 -0.595 1.19125 0 1 C0 0.67 0 0.34 0 0 Z " fill="#BBBCBF" transform="translate(290,183)"/>
<path d="M0 0 C2.68826864 0.11490912 5.37513469 0.24163199 8.0625 0.375 C8.81466797 0.4059375 9.56683594 0.436875 10.34179688 0.46875 C15.18961281 0.72058459 19.38308043 1.49168365 24 3 C24 3.99 24 4.98 24 6 C23.01 6 22.02 6 21 6 C21 6.66 21 7.32 21 8 C20.25234375 7.98839844 19.5046875 7.97679687 18.734375 7.96484375 C17.74953125 7.95582031 16.7646875 7.94679688 15.75 7.9375 C14.77546875 7.92589844 13.8009375 7.91429687 12.796875 7.90234375 C10.12120121 7.89386509 10.12120121 7.89386509 8.08203125 8.5 C5.93365212 9.01593345 4.09572673 9.11436157 1.890625 9.09765625 C1.13652344 9.09443359 0.38242188 9.09121094 -0.39453125 9.08789062 C-1.17183594 9.07951172 -1.94914063 9.07113281 -2.75 9.0625 C-3.54277344 9.05798828 -4.33554688 9.05347656 -5.15234375 9.04882812 C-7.10159508 9.03708565 -9.05080738 9.01915146 -11 9 C-11 8.67 -11 8.34 -11 8 C-5.555 7.505 -5.555 7.505 0 7 C-1.65 6.67 -3.3 6.34 -5 6 C-4.67 5.01 -4.34 4.02 -4 3 C-2.68 3 -1.36 3 0 3 C0 2.01 0 1.02 0 0 Z " fill="#C8C9CF" transform="translate(215,360)"/>
<path d="M0 0 C0 0.66 0 1.32 0 2 C-0.66 2 -1.32 2 -2 2 C-1.896875 2.886875 -1.79375 3.77375 -1.6875 4.6875 C-2.10804198 9.145245 -3.69004714 10.04216979 -7 13 C-8.28721419 14.42285039 -9.55753408 15.86112681 -10.8125 17.3125 C-11.41707031 18.00988281 -12.02164063 18.70726563 -12.64453125 19.42578125 C-13.31548828 20.20501953 -13.31548828 20.20501953 -14 21 C-15.875 20.75 -15.875 20.75 -18 20 C-19.25 17.9375 -19.25 17.9375 -20 16 C-19.36191406 15.32453125 -18.72382813 14.6490625 -18.06640625 13.953125 C-17.24011719 13.06109375 -16.41382813 12.1690625 -15.5625 11.25 C-14.32693359 9.92742187 -14.32693359 9.92742187 -13.06640625 8.578125 C-11.09518134 6.11875177 -10.65731544 4.94477318 -10 2 C-6.40349908 0.40155515 -3.96602757 0 0 0 Z " fill="#BBBCBF" transform="translate(232,73)"/>
<path d="M0 0 C-0.99 0.33 -1.98 0.66 -3 1 C-2.896875 1.886875 -2.79375 2.77375 -2.6875 3.6875 C-3.10804198 8.145245 -4.69004714 9.04216979 -8 12 C-9.28721419 13.42285039 -10.55753408 14.86112681 -11.8125 16.3125 C-12.41707031 17.00988281 -13.02164063 17.70726563 -13.64453125 18.42578125 C-14.31548828 19.20501953 -14.31548828 19.20501953 -15 20 C-17.475 19.01 -17.475 19.01 -20 18 C-19.49735697 13.6154062 -18.09381945 11.58941444 -15.0625 8.4375 C-12.45714991 5.70921143 -10.63843528 3.38113463 -9 0 C-5.82453305 -1.42348518 -3.30021001 -0.8250525 0 0 Z " fill="#BBBCBF" transform="translate(240,80)"/>
<path d="M0 0 C6.34940634 1.52261457 12.93123852 2.08542049 19.1875 0 C23.11638715 -1.30962905 25.94231606 -0.63710068 30 0.0625 C30 1.0525 30 2.0425 30 3.0625 C26.57785989 4.20321337 23.92798046 4.19194759 20.3203125 4.1953125 C19.67053436 4.19626923 19.02075623 4.19722595 18.35128784 4.19821167 C16.97784325 4.1988914 15.60439543 4.19705154 14.23095703 4.19287109 C12.13957402 4.18753717 10.04840745 4.19281406 7.95703125 4.19921875 C6.6197912 4.19855759 5.28255128 4.19727565 3.9453125 4.1953125 C2.73375488 4.19418457 1.52219727 4.19305664 0.27392578 4.19189453 C-2.61474746 4.07772624 -5.19483956 3.73014277 -8 3.0625 C-7.67 2.0725 -7.34 1.0825 -7 0.0625 C-3.7692106 -1.0144298 -3.12044984 -0.87762652 0 0 Z " fill="#9C9BA4" transform="translate(286,362.9375)"/>
<path d="M0 0 C0.76441406 -0.01417969 1.52882812 -0.02835937 2.31640625 -0.04296875 C4.4375 0.1875 4.4375 0.1875 7.4375 2.1875 C-5.12752495 5.28724184 -18.00770201 4.60162308 -30.7890625 3.40234375 C-37.08499841 3.04387949 -43.39090406 3.1841398 -49.6940918 3.3125 C-51.1313562 3.32990234 -51.1313562 3.32990234 -52.59765625 3.34765625 C-53.4575415 3.36449463 -54.31742676 3.38133301 -55.20336914 3.39868164 C-57.775677 3.1684171 -59.30614398 2.38939443 -61.5625 1.1875 C-60.57984161 1.19083092 -60.57984161 1.19083092 -59.57733154 1.19422913 C-52.76428777 1.21633789 -45.95125417 1.23143004 -39.13818359 1.24243164 C-36.59488511 1.24746305 -34.05158953 1.25428881 -31.50830078 1.26293945 C-27.85448492 1.27505706 -24.20070728 1.28074022 -20.546875 1.28515625 C-18.83887726 1.29289818 -18.83887726 1.29289818 -17.09637451 1.30079651 C-16.03557678 1.30087204 -14.97477905 1.30094757 -13.88183594 1.30102539 C-12.48285065 1.30435631 -12.48285065 1.30435631 -11.05560303 1.30775452 C-7.27181499 1.12524397 -3.82312326 0.03234453 0 0 Z " fill="#DDDEE2" transform="translate(229.5625,366.8125)"/>
<path d="M0 0 C0.66 0 1.32 0 2 0 C1.2793124 6.77446344 0.32546052 14.29931418 -5 19 C-5.86658615 17.73760288 -6.71792059 16.46472499 -7.5625 15.1875 C-8.27599609 14.12595703 -8.27599609 14.12595703 -9.00390625 13.04296875 C-10 11 -10 11 -9 8 C-7.00669158 6.65668346 -5.00615134 5.32405988 -3 4 C-1.97676564 2.68441297 -0.96873032 1.35622245 0 0 Z " fill="#BBBBBE" transform="translate(221,193)"/>
<path d="M0 0 C3.32783116 1.9532922 4.71192872 3.02498951 5.8125 6.75 C5.874375 7.4925 5.93625 8.235 6 9 C5.33613281 8.68289062 4.67226563 8.36578125 3.98828125 8.0390625 C0.39075657 6.78815849 -3.0439801 6.54809948 -6.8125 6.375 C-7.50537109 6.33632812 -8.19824219 6.29765625 -8.91210938 6.2578125 C-10.60767015 6.16426432 -12.30379712 6.08107636 -14 6 C-9.8380222 0.40285744 -7.00323177 -0.60372688 0 0 Z " fill="#BBB9BC" transform="translate(358,149)"/>
<path d="M0 0 C0.33 0.99 0.66 1.98 1 3 C-0.32 3 -1.64 3 -3 3 C-3 3.66 -3 4.32 -3 5 C-2.01 5.66 -1.02 6.32 0 7 C-4.41665288 7.02902168 -8.83328123 7.04680608 -13.25 7.0625 C-15.13138672 7.07506836 -15.13138672 7.07506836 -17.05078125 7.08789062 C-18.85869141 7.09272461 -18.85869141 7.09272461 -20.703125 7.09765625 C-22.36843262 7.10551147 -22.36843262 7.10551147 -24.06738281 7.11352539 C-26.57157379 7.01658493 -28.6181156 6.73230276 -31 6 C-30.67 5.01 -30.34 4.02 -30 3 C-28.14375 3.2475 -28.14375 3.2475 -26.25 3.5 C-16.55947094 4.52085762 -8.68697794 4.91384611 0 0 Z " fill="#A6A3AB" transform="translate(214,360)"/>
<path d="M0 0 C6.93 0 13.86 0 21 0 C15.97092722 3.35271519 10.60516309 5.95347923 4.5 6.0625 C3.675 5.711875 2.85 5.36125 2 5 C1.34 3.35 0.68 1.7 0 0 Z " fill="#BBBCBF" transform="translate(217,183)"/>
<path d="M0 0 C0.76441406 -0.01417969 1.52882812 -0.02835937 2.31640625 -0.04296875 C4.4375 0.1875 4.4375 0.1875 7.4375 2.1875 C-2.21903116 4.56972795 -11.69575025 4.38288118 -21.5625 4.1875 C-21.5625 3.8575 -21.5625 3.5275 -21.5625 3.1875 C-17.2725 3.1875 -12.9825 3.1875 -8.5625 3.1875 C-8.5625 2.5275 -8.5625 1.8675 -8.5625 1.1875 C-5.6548543 0.35958266 -3.02159481 0.02556341 0 0 Z " fill="#E4E5E8" transform="translate(229.5625,366.8125)"/>
<path d="M0 0 C1.89551022 -0.05441656 3.7914792 -0.09298035 5.6875 -0.125 C6.74324219 -0.14820313 7.79898438 -0.17140625 8.88671875 -0.1953125 C12.02251859 0.00141271 14.17645373 0.66942346 17 2 C17 2.66 17 3.32 17 4 C10.64012196 4.20190089 5.14778871 3.6277833 -1 2 C-0.67 1.34 -0.34 0.68 0 0 Z " fill="#E6E7EA" transform="translate(217,358)"/>
<path d="M0 0 C1.76923828 0.01353516 1.76923828 0.01353516 3.57421875 0.02734375 C4.47785156 0.03894531 5.38148438 0.05054688 6.3125 0.0625 C6.6425 0.7225 6.9725 1.3825 7.3125 2.0625 C1.85788831 3.44779821 -3.05468401 4.3021943 -8.6875 4.0625 C-9.0175 3.0725 -9.3475 2.0825 -9.6875 1.0625 C-6.26517028 -0.07827657 -3.60076783 -0.03565117 0 0 Z " fill="#DEDFE3" transform="translate(174.6875,357.9375)"/>
<path d="M0 0 C2.72869407 0.03287583 5.2966618 0.56397771 8 1 C8 1.99 8 2.98 8 4 C4.57767028 5.14077657 1.91326783 5.09815117 -1.6875 5.0625 C-3.45673828 5.04896484 -3.45673828 5.04896484 -5.26171875 5.03515625 C-6.16535156 5.02355469 -7.06898438 5.01195312 -8 5 C-8 4.67 -8 4.34 -8 4 C-6.576875 3.566875 -6.576875 3.566875 -5.125 3.125 C-1.94788422 2.23174891 -1.94788422 2.23174891 0 0 Z " fill="#A6A7AE" transform="translate(308,362)"/>
<path d="M0 0 C2.96175123 0.61277612 4.38058783 1.25372522 7 3 C7 3.66 7 4.32 7 5 C7.99 5.33 8.98 5.66 10 6 C6.04 6 2.08 6 -2 6 C-1.34 4.02 -0.68 2.04 0 0 Z " fill="#BBBCBF" transform="translate(234,198)"/>
<path d="M0 0 C1.19625 0.165 2.3925 0.33 3.625 0.5 C10.07041997 1.23219971 16.52295265 1.08292095 23 1 C22.67 1.66 22.34 2.32 22 3 C14.41 3 6.82 3 -1 3 C-0.67 2.01 -0.34 1.02 0 0 Z " fill="#92939C" transform="translate(184,363)"/>
<path d="M0 0 C3.64387511 0.45241094 7.29397013 0.69174634 10.95703125 0.921875 C12.26800781 1.00566406 13.57898438 1.08945312 14.9296875 1.17578125 C15.90808594 1.23636719 16.88648438 1.29695313 17.89453125 1.359375 C17.89453125 1.689375 17.89453125 2.019375 17.89453125 2.359375 C14.70705096 2.38870072 11.51960597 2.40628239 8.33203125 2.421875 C6.98915039 2.43444336 6.98915039 2.43444336 5.61914062 2.44726562 C0.59455182 2.46567071 -4.15364166 2.22203898 -9.10546875 1.359375 C-5.55632767 -1.00671905 -4.07430331 -0.56756464 0 0 Z " fill="#E8E8EB" transform="translate(271.10546875,368.640625)"/>
<path d="M0 0 C1.93719378 -0.05406122 3.87481921 -0.09282025 5.8125 -0.125 C6.89144531 -0.14820313 7.97039062 -0.17140625 9.08203125 -0.1953125 C12 0 12 0 15 2 C14.67 2.33 14.34 2.66 14 3 C11.64305046 2.90968426 9.28846418 2.75311872 6.9375 2.5625 C5.64714844 2.46066406 4.35679687 2.35882813 3.02734375 2.25390625 C1.52880859 2.12822266 1.52880859 2.12822266 0 2 C0 1.34 0 0.68 0 0 Z " fill="#E3E3E7" transform="translate(315,358)"/>
<path d="M0 0 C1.79093191 -0.08086147 3.58289628 -0.13912702 5.375 -0.1875 C6.87160156 -0.23970703 6.87160156 -0.23970703 8.3984375 -0.29296875 C9.25695312 -0.19628906 10.11546875 -0.09960938 11 0 C11.66 0.99 12.32 1.98 13 3 C8.62065881 2.48041715 4.31196609 1.94324258 0 1 C0 0.67 0 0.34 0 0 Z " fill="#DADADF" transform="translate(216,359)"/>
<path d="M0 0 C1.65 1.32 3.3 2.64 5 4 C1.37 4.33 -2.26 4.66 -6 5 C-5.67 4.34 -5.34 3.68 -5 3 C-3.66666667 2.66666667 -2.33333333 2.33333333 -1 2 C-0.67 1.34 -0.34 0.68 0 0 Z " fill="#C6BEC4" transform="translate(278,358)"/>
</svg>
